<svg xmlns="http://www.w3.org/2000/svg" width="800" height="600" viewBox="0 0 800 600" role="img" aria-label="About illustration v1">
  <rect width="800" height="600" fill="#FFF8F0"/>
  <rect x="0" y="390" width="800" height="210" fill="#EAF3DE"/>
  <rect x="80" y="270" width="640" height="26" rx="13" fill="#D4A017"/>
  <rect x="240" y="190" width="210" height="220" rx="24" fill="#FF6B35"/>
  <path d="M270 190 C270 140, 420 140, 420 190" fill="none" stroke="#1A5C38" stroke-width="16" stroke-linecap="round"/>
  <rect x="292" y="255" width="108" height="108" rx="18" fill="#FFF8F0"/>
  <path d="M346 270 C365 250, 388 256, 394 278 C401 299, 386 321, 365 330 C360 313, 346 303, 330 307 C321 286, 327 272, 346 270Z" fill="#1A5C38"/>
  <rect x="480" y="214" width="100" height="130" rx="16" fill="#1A5C38"/>
  <rect x="505" y="184" width="70" height="42" rx="8" fill="#1A5C38"/>
  <circle cx="532" cy="246" r="10" fill="#D4A017"/>
  <circle cx="566" cy="246" r="10" fill="#D4A017"/>
  <circle cx="532" cy="284" r="10" fill="#D4A017"/>
  <circle cx="566" cy="284" r="10" fill="#D4A017"/>
</svg>
