<svg xmlns="http://www.w3.org/2000/svg" width="800" height="600" viewBox="0 0 800 600" role="img" aria-label="About illustration v1">
  <rect width="800" height="600" fill="#FFF8F0"/>
  <rect x="0" y="390" width="800" height="210" fill="#EAF3DE"/>
  <rect x="80" y="270" width="640" height="26" rx="13" fill="#D4A017"/>
  <rect x="240" y="190" width="210" height="220" rx="24" fill="#FF6B35"/>
  <path d="M270 190 C270 140, 420 140, 420 190" fill="none" stroke="#1A5C38" stroke-width="16" stroke-linecap="round"/>
  
  <!-- White Background Square -->
  <rect x="292" y="255" width="108" height="108" rx="18" fill="#FFF8F0"/>

  <!-- Nested Flame SVG: Preserves internal logic perfectly -->
  <svg x="292" y="255" width="108" height="108" viewBox="88 64 320 320">
    <defs>
      <mask id="gozaika-flame-mask" maskUnits="userSpaceOnUse" maskContentUnits="userSpaceOnUse" x="0" y="0" width="512" height="512">
        <rect width="512" height="512" fill="white" />
        <g transform="translate(4, 14.5) scale(0.06)" fill="none" stroke="black" stroke-width="12" stroke-linecap="round" stroke-linejoin="round">
          <g transform="translate(10, 25)">
            <path d="M 10 5 Q 70 5 70 25 Q 70 40 10 40 Q 70 40 70 55 Q 70 75 10 75" />
          </g>
          <g transform="translate(88, 35)">
            <path d="M 11.75 75 Q 11.75 5 40 5 Q 68.25 5 68.25 75" />
            <rect x="11.75" y="40" width="56.5" height="10" fill="black" stroke="none" />
          </g>
          <g transform="translate(170, 30)">
            <path d="M 10 75 Q 10 5 25 5 Q 40 5 40 75 Q 40 5 55 5 Q 70 5 70 75" />
          </g>
        </g>
      </mask>
    </defs>
    <g transform="translate(56, 40) scale(16)">
      <!-- Fill changed to #1A5C38 to match original illustration -->
      <path fill="#1A5C38" 
            mask="url(#gozaika-flame-mask)"
            d="M12 10.941c2.333 -3.308 .167 -7.823 -1 -8.941c0 3.395 -2.235 5.299 -3.667 6.706c-1.43 1.408 -2.333 3.294 -2.333 5.588c0 3.704 3.134 6.706 7 6.706c3.866 0 7 -3.002 7 -6.706c0 -1.712 -1.232 -4.403 -2.333 -5.588c-2.084 3.353 -3.257 3.353 -4.667 2.235" />
    </g>
  </svg>

  <rect x="480" y="214" width="100" height="130" rx="16" fill="#1A5C38"/>
  <rect x="505" y="184" width="70" height="42" rx="8" fill="#1A5C38"/>
  <circle cx="532" cy="246" r="10" fill="#D4A017"/>
  <circle cx="566" cy="246" r="10" fill="#D4A017"/>
  <circle cx="532" cy="284" r="10" fill="#D4A017"/>
  <circle cx="566" cy="284" r="10" fill="#D4A017"/>
</svg>
