<svg xmlns="http://www.w3.org/2000/svg" width="600" height="600" viewBox="0 0 600 600" role="img" aria-label="Hero BAM Bag illustration v1">
  <rect width="600" height="600" fill="#FFF8F0"/>
  <circle cx="300" cy="300" r="210" fill="#EAF3DE"/>
  <rect x="185" y="180" width="230" height="270" rx="24" fill="#FF6B35"/>
  <path d="M220 182 C220 132, 380 132, 380 182" fill="none" stroke="#1A5C38" stroke-width="20" stroke-linecap="round"/>
  
  <!-- Green Background Square -->
  <rect x="235" y="246" width="130" height="130" rx="18" fill="#1A5C38"/>

  <!-- Integrated Flame SVG centered in the square -->
  <svg x="235" y="246" width="130" height="130" viewBox="88 64 320 320">
    <defs>
      <mask id="hero-flame-mask" maskUnits="userSpaceOnUse" maskContentUnits="userSpaceOnUse" x="0" y="0" width="512" height="512">
        <rect width="512" height="512" fill="white" />
        <g transform="translate(4, 14.5) scale(0.06)" fill="none" stroke="black" stroke-width="12" stroke-linecap="round" stroke-linejoin="round">
          <g transform="translate(10, 25)">
            <path d="M 10 5 Q 70 5 70 25 Q 70 40 10 40 Q 70 40 70 55 Q 70 75 10 75" />
          </g>
          <g transform="translate(88, 35)">
            <path d="M 11.75 75 Q 11.75 5 40 5 Q 68.25 5 68.25 75" />
            <rect x="11.75" y="40" width="56.5" height="10" fill="black" stroke="none" />
          </g>
          <g transform="translate(170, 30)">
            <path d="M 10 75 Q 10 5 25 5 Q 40 5 40 75 Q 40 5 55 5 Q 70 5 70 75" />
          </g>
        </g>
      </mask>
    </defs>
    <g transform="translate(56, 40) scale(16)">
      <!-- Fill color inverted to #FFF8F0 to match original version logic -->
      <path fill="#FFF8F0" 
            mask="url(#hero-flame-mask)"
            d="M12 10.941c2.333 -3.308 .167 -7.823 -1 -8.941c0 3.395 -2.235 5.299 -3.667 6.706c-1.43 1.408 -2.333 3.294 -2.333 5.588c0 3.704 3.134 6.706 7 6.706c3.866 0 7 -3.002 7 -6.706c0 -1.712 -1.232 -4.403 -2.333 -5.588c-2.084 3.353 -3.257 3.353 -4.667 2.235" />
    </g>
  </svg>

  <rect x="160" y="430" width="280" height="24" rx="12" fill="#D4A017"/>
</svg>
