<?xml version="1.0" encoding="UTF-8" standalone="no"?>
<!DOCTYPE svg PUBLIC "-//W3C//DTD SVG 1.1//EN"
 "http://www.w3.org/Graphics/SVG/1.1/DTD/svg11.dtd">
<!-- Generated by graphviz version 2.42.4 (0)
 -->
<!-- Title: G Pages: 1 -->
<svg width="2238pt" height="1705pt"
 viewBox="0.00 0.00 2238.20 1704.71" xmlns="http://www.w3.org/2000/svg" xmlns:xlink="http://www.w3.org/1999/xlink">
<g id="graph0" class="graph" transform="scale(1 1) rotate(0) translate(21.6 1683.11)">
<title>G</title>
<polygon fill="white" stroke="transparent" points="-21.6,21.6 -21.6,-1683.11 2216.6,-1683.11 2216.6,21.6 -21.6,21.6"/>
<g id="clust1" class="cluster">
<title>cluster_central</title>
<path fill="white" stroke="#e5e7eb" stroke-dasharray="5,2" d="M390.5,-783C390.5,-783 505.5,-783 505.5,-783 511.5,-783 517.5,-789 517.5,-795 517.5,-795 517.5,-829 517.5,-829 517.5,-835 511.5,-841 505.5,-841 505.5,-841 390.5,-841 390.5,-841 384.5,-841 378.5,-835 378.5,-829 378.5,-829 378.5,-795 378.5,-795 378.5,-789 384.5,-783 390.5,-783"/>
</g>
<g id="clust5" class="cluster">
<title>cluster_periph</title>
<path fill="white" stroke="#e5e7eb" stroke-dasharray="5,2" d="M1659,-503C1659,-503 2175,-503 2175,-503 2181,-503 2187,-509 2187,-515 2187,-515 2187,-758 2187,-758 2187,-764 2181,-770 2175,-770 2175,-770 1659,-770 1659,-770 1653,-770 1647,-764 1647,-758 1647,-758 1647,-515 1647,-515 1647,-509 1653,-503 1659,-503"/>
</g>
<!-- AUTH / IAM -->
<g id="node1" class="node">
<title>AUTH / IAM</title>
<path fill="#eef2ff" stroke="#818cf8" stroke-width="2" d="M497.5,-833C497.5,-833 398.5,-833 398.5,-833 392.5,-833 386.5,-827 386.5,-821 386.5,-821 386.5,-803 386.5,-803 386.5,-797 392.5,-791 398.5,-791 398.5,-791 497.5,-791 497.5,-791 503.5,-791 509.5,-797 509.5,-803 509.5,-803 509.5,-821 509.5,-821 509.5,-827 503.5,-833 497.5,-833"/>
<text text-anchor="middle" x="448" y="-808.2" font-family="Helvetica,sans-Serif" font-size="16.00">AUTH / IAM</text>
</g>
<!-- CONSUMER -->
<g id="node2" class="node">
<title>CONSUMER</title>
<path fill="#f5f3ff" stroke="#a78bfa" stroke-width="2" d="M1183.5,-965C1183.5,-965 1081.5,-965 1081.5,-965 1075.5,-965 1069.5,-959 1069.5,-953 1069.5,-953 1069.5,-935 1069.5,-935 1069.5,-929 1075.5,-923 1081.5,-923 1081.5,-923 1183.5,-923 1183.5,-923 1189.5,-923 1195.5,-929 1195.5,-935 1195.5,-935 1195.5,-953 1195.5,-953 1195.5,-959 1189.5,-965 1183.5,-965"/>
<text text-anchor="middle" x="1132.5" y="-940.2" font-family="Helvetica,sans-Serif" font-size="16.00">CONSUMER</text>
</g>
<!-- AUTH / IAM&#45;&gt;CONSUMER -->
<g id="edge1" class="edge">
<title>AUTH / IAM&#45;&gt;CONSUMER</title>
<path fill="none" stroke="#f87171" stroke-width="3" d="M509.68,-801.62C601.4,-789.32 777.21,-779.28 896,-857 923.31,-874.87 904.82,-902.94 932,-921 969.7,-946.06 1020.48,-951.61 1061.37,-951"/>
<polygon fill="#f87171" stroke="#f87171" stroke-width="3" points="1061.48,-953.8 1069.41,-950.8 1061.35,-948.2 1061.48,-953.8"/>
<text text-anchor="middle" x="969.5" y="-949.2" font-family="Helvetica,sans-Serif" font-size="11.00" fill="#f87171">[C] 2 owns</text>
</g>
<!-- AUTH / IAM&#45;&gt;CONSUMER -->
<g id="edge2" class="edge">
<title>AUTH / IAM&#45;&gt;CONSUMER</title>
<path fill="none" stroke="#818cf8" stroke-width="2" d="M509.8,-813.26C596.55,-816.14 760.35,-825.65 896,-857 960.16,-871.83 1030.62,-899.46 1077.59,-919.61"/>
<polygon fill="#818cf8" stroke="#818cf8" stroke-width="2" points="1076.76,-922.3 1085.21,-922.91 1078.98,-917.16 1076.76,-922.3"/>
<text text-anchor="middle" x="969.5" y="-892.2" font-family="Helvetica,sans-Serif" font-size="11.00" fill="#818cf8">[R] 1 has</text>
</g>
<!-- AUTH / IAM&#45;&gt;CONSUMER -->
<g id="edge3" class="edge">
<title>AUTH / IAM&#45;&gt;CONSUMER</title>
<path fill="none" stroke="#9ca3af" stroke-width="1.5" stroke-dasharray="5,2" d="M509.73,-803.77C615.02,-792 836.5,-778.46 1007,-844 1047.08,-859.41 1084.23,-892.77 1107.33,-916.73"/>
<polygon fill="#9ca3af" stroke="#9ca3af" stroke-width="1.5" points="1105.36,-918.72 1112.89,-922.6 1109.42,-914.87 1105.36,-918.72"/>
<text text-anchor="middle" x="969.5" y="-847.2" font-family="Helvetica,sans-Serif" font-size="11.00" fill="#9ca3af">[S] 2 optional</text>
</g>
<!-- ORDER / PAYMENT -->
<g id="node3" class="node">
<title>ORDER / PAYMENT</title>
<path fill="#fdf4ff" stroke="#e879f9" stroke-width="2" d="M1210,-829C1210,-829 1055,-829 1055,-829 1049,-829 1043,-823 1043,-817 1043,-817 1043,-799 1043,-799 1043,-793 1049,-787 1055,-787 1055,-787 1210,-787 1210,-787 1216,-787 1222,-793 1222,-799 1222,-799 1222,-817 1222,-817 1222,-823 1216,-829 1210,-829"/>
<text text-anchor="middle" x="1132.5" y="-804.2" font-family="Helvetica,sans-Serif" font-size="16.00">ORDER / PAYMENT</text>
</g>
<!-- AUTH / IAM&#45;&gt;ORDER / PAYMENT -->
<g id="edge8" class="edge">
<title>AUTH / IAM&#45;&gt;ORDER / PAYMENT</title>
<path fill="none" stroke="#9ca3af" stroke-width="1.5" stroke-dasharray="5,2" d="M509.89,-801.19C612.68,-784.53 827.02,-756.62 1007,-778 1020.57,-779.61 1034.79,-782.18 1048.58,-785.15"/>
<polygon fill="#9ca3af" stroke="#9ca3af" stroke-width="1.5" points="1048.22,-787.94 1056.64,-786.94 1049.43,-782.47 1048.22,-787.94"/>
<text text-anchor="middle" x="969.5" y="-781.2" font-family="Helvetica,sans-Serif" font-size="11.00" fill="#9ca3af">[S] 3 optional</text>
</g>
<!-- RESTAURANT -->
<g id="node4" class="node">
<title>RESTAURANT</title>
<path fill="#fff7ed" stroke="#fb923c" stroke-width="2" d="M1496,-1244C1496,-1244 1381,-1244 1381,-1244 1375,-1244 1369,-1238 1369,-1232 1369,-1232 1369,-1214 1369,-1214 1369,-1208 1375,-1202 1381,-1202 1381,-1202 1496,-1202 1496,-1202 1502,-1202 1508,-1208 1508,-1214 1508,-1214 1508,-1232 1508,-1232 1508,-1238 1502,-1244 1496,-1244"/>
<text text-anchor="middle" x="1438.5" y="-1219.2" font-family="Helvetica,sans-Serif" font-size="16.00">RESTAURANT</text>
</g>
<!-- AUTH / IAM&#45;&gt;RESTAURANT -->
<g id="edge9" class="edge">
<title>AUTH / IAM&#45;&gt;RESTAURANT</title>
<path fill="none" stroke="#f87171" stroke-width="3" d="M509.86,-799.06C603.8,-782.86 784.87,-767.12 896,-857 936.65,-889.88 903.12,-925.41 932,-969 1037.66,-1128.46 1078.69,-1183.39 1258,-1250 1296.45,-1264.28 1342.2,-1257.06 1377.89,-1246.51"/>
<polygon fill="#f87171" stroke="#f87171" stroke-width="3" points="1378.99,-1249.11 1385.81,-1244.07 1377.34,-1243.75 1378.99,-1249.11"/>
<text text-anchor="middle" x="1132.5" y="-1237.2" font-family="Helvetica,sans-Serif" font-size="11.00" fill="#f87171">[C] 1 owns</text>
</g>
<!-- AUTH / IAM&#45;&gt;RESTAURANT -->
<g id="edge10" class="edge">
<title>AUTH / IAM&#45;&gt;RESTAURANT</title>
<path fill="none" stroke="#9ca3af" stroke-width="1.5" stroke-dasharray="5,2" d="M509.8,-797.63C605.32,-778.99 790.51,-759.41 896,-857 962.3,-918.33 901.68,-971.92 932,-1057 966.13,-1152.76 959.31,-1199.29 1043,-1257 1149.71,-1330.58 1208.36,-1323.6 1333,-1288 1359.76,-1280.36 1386.35,-1263.66 1406.01,-1249.1"/>
<polygon fill="#9ca3af" stroke="#9ca3af" stroke-width="1.5" points="1407.71,-1251.33 1412.4,-1244.26 1404.33,-1246.86 1407.71,-1251.33"/>
<text text-anchor="middle" x="1132.5" y="-1316.2" font-family="Helvetica,sans-Serif" font-size="11.00" fill="#9ca3af">[S] 7 optional</text>
</g>
<!-- FINANCE -->
<g id="node5" class="node">
<title>FINANCE</title>
<path fill="#f0fdf4" stroke="#4ade80" stroke-width="2" d="M1477.5,-625C1477.5,-625 1399.5,-625 1399.5,-625 1393.5,-625 1387.5,-619 1387.5,-613 1387.5,-613 1387.5,-595 1387.5,-595 1387.5,-589 1393.5,-583 1399.5,-583 1399.5,-583 1477.5,-583 1477.5,-583 1483.5,-583 1489.5,-589 1489.5,-595 1489.5,-595 1489.5,-613 1489.5,-613 1489.5,-619 1483.5,-625 1477.5,-625"/>
<text text-anchor="middle" x="1438.5" y="-600.2" font-family="Helvetica,sans-Serif" font-size="16.00">FINANCE</text>
</g>
<!-- AUTH / IAM&#45;&gt;FINANCE -->
<g id="edge5" class="edge">
<title>AUTH / IAM&#45;&gt;FINANCE</title>
<path fill="none" stroke="#9ca3af" stroke-width="1.5" stroke-dasharray="5,2" d="M509.56,-796.69C643.7,-763.14 976.28,-682.01 1258,-630 1298.28,-622.56 1343.96,-615.97 1379.17,-611.29"/>
<polygon fill="#9ca3af" stroke="#9ca3af" stroke-width="1.5" points="1379.86,-614.02 1387.42,-610.2 1379.13,-608.47 1379.86,-614.02"/>
<text text-anchor="middle" x="1132.5" y="-674.2" font-family="Helvetica,sans-Serif" font-size="11.00" fill="#9ca3af">[S] 1 optional</text>
</g>
<!-- DROP / CATALOG -->
<g id="node6" class="node">
<title>DROP / CATALOG</title>
<path fill="#f0f9ff" stroke="#38bdf8" stroke-width="2" d="M1816.5,-868C1816.5,-868 1672.5,-868 1672.5,-868 1666.5,-868 1660.5,-862 1660.5,-856 1660.5,-856 1660.5,-838 1660.5,-838 1660.5,-832 1666.5,-826 1672.5,-826 1672.5,-826 1816.5,-826 1816.5,-826 1822.5,-826 1828.5,-832 1828.5,-838 1828.5,-838 1828.5,-856 1828.5,-856 1828.5,-862 1822.5,-868 1816.5,-868"/>
<text text-anchor="middle" x="1744.5" y="-843.2" font-family="Helvetica,sans-Serif" font-size="16.00">DROP / CATALOG</text>
</g>
<!-- AUTH / IAM&#45;&gt;DROP / CATALOG -->
<g id="edge4" class="edge">
<title>AUTH / IAM&#45;&gt;DROP / CATALOG</title>
<path fill="none" stroke="#9ca3af" stroke-width="1.5" stroke-dasharray="5,2" d="M509.78,-796.98C606.13,-777.19 793.5,-755.72 896,-857 946.75,-907.14 906.91,-1109.22 932,-1176 962.44,-1257.02 978.14,-1278.69 1043,-1336 1208.01,-1481.8 1307.33,-1597.65 1508,-1507 1732.67,-1405.51 1558.62,-1200.15 1647,-970 1661.38,-932.55 1691.32,-897.35 1714.06,-874.28"/>
<polygon fill="#9ca3af" stroke="#9ca3af" stroke-width="1.5" points="1716.28,-876.02 1719.97,-868.39 1712.32,-872.05 1716.28,-876.02"/>
<text text-anchor="middle" x="1295.5" y="-1537.2" font-family="Helvetica,sans-Serif" font-size="11.00" fill="#9ca3af">[S] 7 optional</text>
</g>
<!-- MARKETING / CMS -->
<g id="node8" class="node">
<title>MARKETING / CMS</title>
<path fill="#fefce8" stroke="#facc15" stroke-width="2" d="M1822,-732C1822,-732 1667,-732 1667,-732 1661,-732 1655,-726 1655,-720 1655,-720 1655,-702 1655,-702 1655,-696 1661,-690 1667,-690 1667,-690 1822,-690 1822,-690 1828,-690 1834,-696 1834,-702 1834,-702 1834,-720 1834,-720 1834,-726 1828,-732 1822,-732"/>
<text text-anchor="middle" x="1744.5" y="-707.2" font-family="Helvetica,sans-Serif" font-size="16.00">MARKETING / CMS</text>
</g>
<!-- AUTH / IAM&#45;&gt;MARKETING / CMS -->
<g id="edge6" class="edge">
<title>AUTH / IAM&#45;&gt;MARKETING / CMS</title>
<path fill="none" stroke="#f87171" stroke-width="3" d="M456.99,-790.87C493.84,-696.68 657.41,-312.92 932,-155 1058.32,-82.35 1112.49,-127.79 1258,-120 1424.01,-111.11 1518.19,-85.8 1619,-218 1679.62,-297.5 1590.33,-584.64 1647,-667 1652.03,-674.32 1658.6,-680.44 1665.93,-685.56"/>
<polygon fill="#f87171" stroke="#f87171" stroke-width="3" points="1664.62,-688.04 1672.87,-689.98 1667.63,-683.32 1664.62,-688.04"/>
<text text-anchor="middle" x="1295.5" y="-123.2" font-family="Helvetica,sans-Serif" font-size="11.00" fill="#f87171">[C] 1 owns</text>
</g>
<!-- AUTH / IAM&#45;&gt;MARKETING / CMS -->
<g id="edge7" class="edge">
<title>AUTH / IAM&#45;&gt;MARKETING / CMS</title>
<path fill="none" stroke="#9ca3af" stroke-width="1.5" stroke-dasharray="5,2" d="M501.22,-790.95C639.72,-736.61 1029.09,-593.56 1369,-560 1479.61,-549.08 1532.38,-496.36 1619,-566 1655.3,-595.19 1616.75,-631.57 1647,-667 1653.26,-674.33 1660.99,-680.5 1669.34,-685.68"/>
<polygon fill="#9ca3af" stroke="#9ca3af" stroke-width="1.5" points="1668.14,-688.23 1676.47,-689.81 1670.94,-683.38 1668.14,-688.23"/>
<text text-anchor="middle" x="1295.5" y="-576.2" font-family="Helvetica,sans-Serif" font-size="11.00" fill="#9ca3af">[S] 4 optional</text>
</g>
<!-- SUPPORT / INCIDENT -->
<g id="node9" class="node">
<title>SUPPORT / INCIDENT</title>
<path fill="#fff1f2" stroke="#fb7185" stroke-width="2" d="M2167,-643C2167,-643 1993,-643 1993,-643 1987,-643 1981,-637 1981,-631 1981,-631 1981,-613 1981,-613 1981,-607 1987,-601 1993,-601 1993,-601 2167,-601 2167,-601 2173,-601 2179,-607 2179,-613 2179,-613 2179,-631 2179,-631 2179,-637 2173,-643 2167,-643"/>
<text text-anchor="middle" x="2080" y="-618.2" font-family="Helvetica,sans-Serif" font-size="16.00">SUPPORT / INCIDENT</text>
</g>
<!-- AUTH / IAM&#45;&gt;SUPPORT / INCIDENT -->
<g id="edge12" class="edge">
<title>AUTH / IAM&#45;&gt;SUPPORT / INCIDENT</title>
<path fill="none" stroke="#9ca3af" stroke-width="1.5" stroke-dasharray="5,2" d="M454.96,-790.7C492.24,-662.58 705.64,0 1131.5,0 1131.5,0 1131.5,0 1745.5,0 2018.02,0 2068.74,-469.49 2077.36,-592.69"/>
<polygon fill="#9ca3af" stroke="#9ca3af" stroke-width="1.5" points="2074.58,-593.15 2077.91,-600.95 2080.17,-592.78 2074.58,-593.15"/>
<text text-anchor="middle" x="1438.5" y="-3.2" font-family="Helvetica,sans-Serif" font-size="11.00" fill="#9ca3af">[S] 4 optional</text>
</g>
<!-- SHARED / OPS -->
<g id="node10" class="node">
<title>SHARED / OPS</title>
<path fill="#f3f4f6" stroke="#9ca3af" stroke-width="2" d="M1806.5,-643C1806.5,-643 1682.5,-643 1682.5,-643 1676.5,-643 1670.5,-637 1670.5,-631 1670.5,-631 1670.5,-613 1670.5,-613 1670.5,-607 1676.5,-601 1682.5,-601 1682.5,-601 1806.5,-601 1806.5,-601 1812.5,-601 1818.5,-607 1818.5,-613 1818.5,-613 1818.5,-631 1818.5,-631 1818.5,-637 1812.5,-643 1806.5,-643"/>
<text text-anchor="middle" x="1744.5" y="-618.2" font-family="Helvetica,sans-Serif" font-size="16.00">SHARED / OPS</text>
</g>
<!-- AUTH / IAM&#45;&gt;SHARED / OPS -->
<g id="edge11" class="edge">
<title>AUTH / IAM&#45;&gt;SHARED / OPS</title>
<path fill="none" stroke="#9ca3af" stroke-width="1.5" stroke-dasharray="5,2" d="M490.62,-790.83C585.82,-743.35 827.8,-627.92 1043,-569 1184.25,-530.32 1222.97,-532.11 1369,-521 1479.79,-512.57 1514.37,-482.61 1619,-520 1630.01,-523.93 1679.82,-566.31 1713.01,-595.19"/>
<polygon fill="#9ca3af" stroke="#9ca3af" stroke-width="1.5" points="1711.54,-597.62 1719.41,-600.77 1715.22,-593.4 1711.54,-597.62"/>
<text text-anchor="middle" x="1295.5" y="-532.2" font-family="Helvetica,sans-Serif" font-size="11.00" fill="#9ca3af">[S] 3 optional</text>
</g>
<!-- CONSUMER&#45;&gt;ORDER / PAYMENT -->
<g id="edge15" class="edge">
<title>CONSUMER&#45;&gt;ORDER / PAYMENT</title>
<path fill="none" stroke="#f87171" stroke-width="3" d="M1132.5,-922.9C1132.5,-900 1132.5,-863.28 1132.5,-837.53"/>
<polygon fill="#f87171" stroke="#f87171" stroke-width="3" points="1135.3,-837.25 1132.5,-829.25 1129.7,-837.25 1135.3,-837.25"/>
<text text-anchor="middle" x="1123.5" y="-873.2" font-family="Helvetica,sans-Serif" font-size="11.00" fill="#f87171">[C] 2 owns</text>
</g>
<!-- CONSUMER&#45;&gt;ORDER / PAYMENT -->
<g id="edge16" class="edge">
<title>CONSUMER&#45;&gt;ORDER / PAYMENT</title>
<path fill="none" stroke="#818cf8" stroke-width="2" d="M1141.58,-922.76C1144.01,-916.08 1146.28,-908.6 1147.5,-901.5 1151.33,-879.16 1151.33,-872.84 1147.5,-850.5 1146.74,-846.07 1145.57,-841.48 1144.2,-837.03"/>
<polygon fill="#818cf8" stroke="#818cf8" stroke-width="2" points="1146.79,-835.94 1141.58,-829.24 1141.48,-837.72 1146.79,-835.94"/>
<text text-anchor="middle" x="1141.5" y="-873.2" font-family="Helvetica,sans-Serif" font-size="11.00" fill="#818cf8">[R] 2 has</text>
</g>
<!-- CONSUMER&#45;&gt;RESTAURANT -->
<g id="edge17" class="edge">
<title>CONSUMER&#45;&gt;RESTAURANT</title>
<path fill="none" stroke="#f87171" stroke-width="3" d="M1136.84,-965.33C1145.97,-1015.78 1176.34,-1142.6 1258,-1201 1287.32,-1221.97 1326.44,-1228.55 1360.67,-1229.44"/>
<polygon fill="#f87171" stroke="#f87171" stroke-width="3" points="1360.77,-1232.24 1368.8,-1229.55 1360.84,-1226.64 1360.77,-1232.24"/>
<text text-anchor="middle" x="1295.5" y="-1230.2" font-family="Helvetica,sans-Serif" font-size="11.00" fill="#f87171">[C] 1 owns</text>
</g>
<!-- CONSUMER&#45;&gt;DROP / CATALOG -->
<g id="edge13" class="edge">
<title>CONSUMER&#45;&gt;DROP / CATALOG</title>
<path fill="none" stroke="#f87171" stroke-width="3" d="M1135.92,-965.33C1143.35,-1020.69 1170.87,-1170.21 1258,-1250 1318.9,-1305.76 1555.25,-1390.48 1619,-1338 1669,-1296.84 1632.11,-1258.03 1647,-1195 1675.22,-1075.53 1716.72,-935.25 1734.68,-875.87"/>
<polygon fill="#f87171" stroke="#f87171" stroke-width="3" points="1737.41,-876.51 1737.05,-868.04 1732.05,-874.88 1737.41,-876.51"/>
<text text-anchor="middle" x="1438.5" y="-1353.2" font-family="Helvetica,sans-Serif" font-size="11.00" fill="#f87171">[C] 1 owns</text>
</g>
<!-- CONSUMER&#45;&gt;MARKETING / CMS -->
<g id="edge14" class="edge">
<title>CONSUMER&#45;&gt;MARKETING / CMS</title>
<path fill="none" stroke="#9ca3af" stroke-width="1.5" stroke-dasharray="5,2" d="M1195.83,-923.28C1291.11,-890.4 1466.37,-824.81 1508,-774 1552.82,-719.3 1488.62,-662.99 1544,-619 1570.1,-598.27 1590.1,-602.4 1619,-619 1640.42,-631.3 1628.68,-650.43 1647,-667 1655.19,-674.4 1664.83,-680.75 1674.8,-686.14"/>
<polygon fill="#9ca3af" stroke="#9ca3af" stroke-width="1.5" points="1673.71,-688.72 1682.1,-689.89 1676.27,-683.74 1673.71,-688.72"/>
<text text-anchor="middle" x="1438.5" y="-857.2" font-family="Helvetica,sans-Serif" font-size="11.00" fill="#9ca3af">[S] 1 optional</text>
</g>
<!-- ORDER / PAYMENT&#45;&gt;RESTAURANT -->
<g id="edge36" class="edge">
<title>ORDER / PAYMENT&#45;&gt;RESTAURANT</title>
<path fill="none" stroke="#f87171" stroke-width="3" d="M1159.22,-829.01C1178.86,-846.26 1205.29,-872.29 1222,-900 1248.34,-943.69 1226.9,-968.56 1258,-1009 1282.27,-1040.56 1308.68,-1026.47 1333,-1058 1363.9,-1098.07 1340.46,-1124.22 1369,-1166 1376.95,-1177.64 1387.92,-1188.22 1398.75,-1197.01"/>
<polygon fill="#f87171" stroke="#f87171" stroke-width="3" points="1397.06,-1199.24 1405.09,-1201.98 1400.52,-1194.84 1397.06,-1199.24"/>
<text text-anchor="middle" x="1295.5" y="-1061.2" font-family="Helvetica,sans-Serif" font-size="11.00" fill="#f87171">[C] 1 owns</text>
</g>
<!-- ORDER / PAYMENT&#45;&gt;FINANCE -->
<g id="edge35" class="edge">
<title>ORDER / PAYMENT&#45;&gt;FINANCE</title>
<path fill="none" stroke="#9ca3af" stroke-width="1.5" stroke-dasharray="5,2" d="M1148.95,-786.53C1170.52,-757.9 1212.18,-707.22 1258,-676 1295.31,-650.58 1342.93,-632.01 1379.75,-620.09"/>
<polygon fill="#9ca3af" stroke="#9ca3af" stroke-width="1.5" points="1380.66,-622.74 1387.44,-617.65 1378.96,-617.41 1380.66,-622.74"/>
<text text-anchor="middle" x="1295.5" y="-679.2" font-family="Helvetica,sans-Serif" font-size="11.00" fill="#9ca3af">[S] 2 optional</text>
</g>
<!-- ORDER / PAYMENT&#45;&gt;DROP / CATALOG -->
<g id="edge34" class="edge">
<title>ORDER / PAYMENT&#45;&gt;DROP / CATALOG</title>
<path fill="none" stroke="#9ca3af" stroke-width="1.5" stroke-dasharray="5,2" d="M1156.63,-829.19C1195.19,-865.04 1274.2,-940.74 1333,-1012 1350.89,-1033.68 1345.13,-1049.16 1369,-1064 1435.77,-1105.53 1465.58,-1084.21 1544,-1090 1577.24,-1092.46 1590.56,-1107.38 1619,-1090 1696.55,-1042.6 1727.77,-929.88 1738.56,-876.28"/>
<polygon fill="#9ca3af" stroke="#9ca3af" stroke-width="1.5" points="1741.36,-876.6 1740.12,-868.21 1735.86,-875.53 1741.36,-876.6"/>
<text text-anchor="middle" x="1438.5" y="-1093.2" font-family="Helvetica,sans-Serif" font-size="11.00" fill="#9ca3af">[S] 2 optional</text>
</g>
<!-- ORDER / PAYMENT&#45;&gt;SUPPORT / INCIDENT -->
<g id="edge37" class="edge">
<title>ORDER / PAYMENT&#45;&gt;SUPPORT / INCIDENT</title>
<path fill="none" stroke="#9ca3af" stroke-width="1.5" stroke-dasharray="5,2" d="M1151.63,-786.97C1170.39,-764.69 1199.98,-728.1 1222,-694 1240.55,-665.28 1234.43,-650.77 1258,-626 1297.57,-584.42 1313.99,-576.37 1369,-560 1614.53,-486.95 1698.61,-468.88 1945,-539 1983.66,-550 2022.07,-575.7 2047.79,-595.61"/>
<polygon fill="#9ca3af" stroke="#9ca3af" stroke-width="1.5" points="2046.35,-598.04 2054.37,-600.79 2049.82,-593.65 2046.35,-598.04"/>
<text text-anchor="middle" x="1581.5" y="-515.2" font-family="Helvetica,sans-Serif" font-size="11.00" fill="#9ca3af">[S] 2 optional</text>
</g>
<!-- RESTAURANT&#45;&gt;CONSUMER -->
<g id="edge38" class="edge">
<title>RESTAURANT&#45;&gt;CONSUMER</title>
<path fill="none" stroke="#f87171" stroke-width="3" d="M1372.64,-1201.93C1336.06,-1187.74 1291.18,-1166.24 1258,-1137 1204.32,-1089.7 1164.73,-1013.89 1145.84,-972.77"/>
<polygon fill="#f87171" stroke="#f87171" stroke-width="3" points="1148.3,-971.41 1142.45,-965.27 1143.2,-973.71 1148.3,-971.41"/>
<text text-anchor="middle" x="1295.5" y="-1186.2" font-family="Helvetica,sans-Serif" font-size="11.00" fill="#f87171">[C] 1 owns</text>
</g>
<!-- RESTAURANT&#45;&gt;ORDER / PAYMENT -->
<g id="edge43" class="edge">
<title>RESTAURANT&#45;&gt;ORDER / PAYMENT</title>
<path fill="none" stroke="#818cf8" stroke-width="2" d="M1409.79,-1201.94C1396.89,-1191.64 1381.64,-1178.74 1369,-1166 1351.21,-1148.06 1351.8,-1138.89 1333,-1122 1303.38,-1095.39 1280.44,-1105.89 1258,-1073 1213.74,-1008.12 1258.65,-969.46 1222,-900 1208.62,-874.64 1186.16,-851.42 1167.21,-834.65"/>
<polygon fill="#818cf8" stroke="#818cf8" stroke-width="2" points="1168.82,-832.34 1160.94,-829.21 1165.16,-836.57 1168.82,-832.34"/>
<text text-anchor="middle" x="1295.5" y="-1125.2" font-family="Helvetica,sans-Serif" font-size="11.00" fill="#818cf8">[R] 2 has</text>
</g>
<!-- RESTAURANT&#45;&gt;FINANCE -->
<g id="edge40" class="edge">
<title>RESTAURANT&#45;&gt;FINANCE</title>
<path fill="none" stroke="#818cf8" stroke-width="2" d="M1404.28,-1201.93C1391.46,-1192.43 1377.86,-1180.15 1369,-1166 1289.33,-1038.82 1262.62,-983.97 1293,-837 1310.25,-753.56 1317.72,-729.05 1369,-661 1377.64,-649.54 1389.03,-638.96 1400.1,-630.1"/>
<polygon fill="#818cf8" stroke="#818cf8" stroke-width="2" points="1401.95,-632.21 1406.55,-625.1 1398.51,-627.79 1401.95,-632.21"/>
<text text-anchor="middle" x="1295.5" y="-840.2" font-family="Helvetica,sans-Serif" font-size="11.00" fill="#818cf8">[R] 3 has</text>
</g>
<!-- RESTAURANT&#45;&gt;DROP / CATALOG -->
<g id="edge39" class="edge">
<title>RESTAURANT&#45;&gt;DROP / CATALOG</title>
<path fill="none" stroke="#f87171" stroke-width="3" d="M1458.92,-1244.12C1493.69,-1279.39 1567.73,-1342.67 1619,-1303 1658.22,-1272.65 1634.15,-1242.89 1647,-1195 1678.81,-1076.44 1718.41,-935.67 1735.28,-876.02"/>
<polygon fill="#f87171" stroke="#f87171" stroke-width="3" points="1738.02,-876.61 1737.5,-868.15 1732.63,-875.09 1738.02,-876.61"/>
<text text-anchor="middle" x="1581.5" y="-1318.2" font-family="Helvetica,sans-Serif" font-size="11.00" fill="#f87171">[C] 3 owns</text>
</g>
<!-- RESTAURANT&#45;&gt;MARKETING / CMS -->
<g id="edge41" class="edge">
<title>RESTAURANT&#45;&gt;MARKETING / CMS</title>
<path fill="none" stroke="#f87171" stroke-width="3" d="M1470.25,-1201.8C1483.02,-1191.95 1497.32,-1179.45 1508,-1166 1576.35,-1079.92 1583.38,-1048.98 1619,-945 1639.85,-884.15 1616.05,-859.39 1647,-803 1661.27,-777 1685.43,-753.98 1706.01,-737.47"/>
<polygon fill="#f87171" stroke="#f87171" stroke-width="3" points="1707.98,-739.48 1712.54,-732.34 1704.52,-735.08 1707.98,-739.48"/>
<text text-anchor="middle" x="1581.5" y="-1118.2" font-family="Helvetica,sans-Serif" font-size="11.00" fill="#f87171">[C] 1 owns</text>
</g>
<!-- RESTAURANT&#45;&gt;MARKETING / CMS -->
<g id="edge42" class="edge">
<title>RESTAURANT&#45;&gt;MARKETING / CMS</title>
<path fill="none" stroke="#9ca3af" stroke-width="1.5" stroke-dasharray="5,2" d="M1475.06,-1201.94C1487.63,-1192.59 1500.5,-1180.41 1508,-1166 1552.76,-1079.95 1476.01,-800.18 1544,-731 1570.26,-704.28 1609.69,-696.49 1646.58,-696.44"/>
<polygon fill="#9ca3af" stroke="#9ca3af" stroke-width="1.5" points="1646.87,-699.24 1654.9,-696.56 1646.94,-693.65 1646.87,-699.24"/>
<text text-anchor="middle" x="1581.5" y="-734.2" font-family="Helvetica,sans-Serif" font-size="11.00" fill="#9ca3af">[S] 1 optional</text>
</g>
<!-- RESTAURANT&#45;&gt;SUPPORT / INCIDENT -->
<g id="edge44" class="edge">
<title>RESTAURANT&#45;&gt;SUPPORT / INCIDENT</title>
<path fill="none" stroke="#9ca3af" stroke-width="1.5" stroke-dasharray="5,2" d="M1458.26,-1244.07C1487.56,-1276.92 1541.14,-1336.73 1544,-1338 1574.48,-1351.49 1590.94,-1355.99 1619,-1338 1644.11,-1321.9 1632.52,-1303.08 1647,-1277 1787.94,-1023.07 1993.74,-737.81 2058.63,-649.51"/>
<polygon fill="#9ca3af" stroke="#9ca3af" stroke-width="1.5" points="2060.92,-651.12 2063.41,-643.02 2056.41,-647.8 2060.92,-651.12"/>
<text text-anchor="middle" x="1744.5" y="-1280.2" font-family="Helvetica,sans-Serif" font-size="11.00" fill="#9ca3af">[S] 2 optional</text>
</g>
<!-- DROP / CATALOG&#45;&gt;ORDER / PAYMENT -->
<g id="edge20" class="edge">
<title>DROP / CATALOG&#45;&gt;ORDER / PAYMENT</title>
<path fill="none" stroke="#818cf8" stroke-width="2" d="M1732.48,-868.37C1701.98,-924.87 1614.07,-1069.84 1544,-1009 1457.91,-934.25 1594.09,-829.75 1508,-755 1413.73,-673.15 1252.94,-742.1 1176.41,-783.01"/>
<polygon fill="#818cf8" stroke="#818cf8" stroke-width="2" points="1174.98,-780.61 1169.28,-786.88 1177.65,-785.53 1174.98,-780.61"/>
<text text-anchor="middle" x="1438.5" y="-758.2" font-family="Helvetica,sans-Serif" font-size="11.00" fill="#818cf8">[R] 4 has</text>
</g>
<!-- DROP / CATALOG&#45;&gt;ORDER / PAYMENT -->
<g id="edge21" class="edge">
<title>DROP / CATALOG&#45;&gt;ORDER / PAYMENT</title>
<path fill="none" stroke="#9ca3af" stroke-width="1.5" stroke-dasharray="5,2" d="M1738.07,-868.14C1725.58,-911.76 1690.28,-1011 1619,-1051 1589.93,-1067.31 1576.27,-1059.35 1544,-1051 1457.91,-1028.74 1424.94,-1023.13 1369,-954 1334.51,-911.38 1374.69,-871.62 1333,-836 1304.94,-812.03 1266.12,-803.06 1230.17,-800.8"/>
<polygon fill="#9ca3af" stroke="#9ca3af" stroke-width="1.5" points="1230.2,-798 1222.07,-800.4 1229.93,-803.59 1230.2,-798"/>
<text text-anchor="middle" x="1438.5" y="-1044.2" font-family="Helvetica,sans-Serif" font-size="11.00" fill="#9ca3af">[S] 1 optional</text>
</g>
<!-- DROP / CATALOG&#45;&gt;RESTAURANT -->
<g id="edge22" class="edge">
<title>DROP / CATALOG&#45;&gt;RESTAURANT</title>
<path fill="none" stroke="#818cf8" stroke-width="2" d="M1737.95,-868.22C1716.01,-951.68 1635.76,-1253.49 1619,-1266 1577.17,-1297.21 1515.91,-1271.3 1476.88,-1248.33"/>
<polygon fill="#818cf8" stroke="#818cf8" stroke-width="2" points="1478.15,-1245.82 1469.86,-1244.08 1475.26,-1250.62 1478.15,-1245.82"/>
<text text-anchor="middle" x="1581.5" y="-1283.2" font-family="Helvetica,sans-Serif" font-size="11.00" fill="#818cf8">[R] 1 has</text>
</g>
<!-- DROP / CATALOG&#45;&gt;RESTAURANT -->
<g id="edge23" class="edge">
<title>DROP / CATALOG&#45;&gt;RESTAURANT</title>
<path fill="none" stroke="#9ca3af" stroke-width="1.5" stroke-dasharray="5,2" d="M1741.57,-868.1C1735.21,-925.11 1709.83,-1083.54 1619,-1168 1591.04,-1194 1551.08,-1207.72 1515.96,-1214.96"/>
<polygon fill="#9ca3af" stroke="#9ca3af" stroke-width="1.5" points="1515.4,-1212.21 1508.09,-1216.49 1516.47,-1217.71 1515.4,-1212.21"/>
<text text-anchor="middle" x="1581.5" y="-1209.2" font-family="Helvetica,sans-Serif" font-size="11.00" fill="#9ca3af">[S] 2 optional</text>
</g>
<!-- DROP / CATALOG&#45;&gt;FINANCE -->
<g id="edge18" class="edge">
<title>DROP / CATALOG&#45;&gt;FINANCE</title>
<path fill="none" stroke="#9ca3af" stroke-width="1.5" stroke-dasharray="5,2" d="M1697.5,-825.96C1678.92,-815.14 1659.06,-800.15 1647,-781 1603.4,-711.74 1681.11,-652.29 1619,-599 1586.31,-570.95 1536.61,-574.64 1497.8,-583.97"/>
<polygon fill="#9ca3af" stroke="#9ca3af" stroke-width="1.5" points="1496.75,-581.35 1489.69,-586.04 1498.13,-586.78 1496.75,-581.35"/>
<text text-anchor="middle" x="1581.5" y="-602.2" font-family="Helvetica,sans-Serif" font-size="11.00" fill="#9ca3af">[S] 1 optional</text>
</g>
<!-- DROP / CATALOG&#45;&gt;MARKETING / CMS -->
<g id="edge19" class="edge">
<title>DROP / CATALOG&#45;&gt;MARKETING / CMS</title>
<path fill="none" stroke="#9ca3af" stroke-width="1.5" stroke-dasharray="5,2" d="M1744.5,-825.9C1744.5,-803 1744.5,-766.28 1744.5,-740.53"/>
<polygon fill="#9ca3af" stroke="#9ca3af" stroke-width="1.5" points="1747.3,-740.25 1744.5,-732.25 1741.7,-740.25 1747.3,-740.25"/>
<text text-anchor="middle" x="1735.5" y="-776.2" font-family="Helvetica,sans-Serif" font-size="11.00" fill="#9ca3af">[S] 1 optional</text>
</g>
<!-- DROP / CATALOG&#45;&gt;SHARED / OPS -->
<g id="edge24" class="edge">
<title>DROP / CATALOG&#45;&gt;SHARED / OPS</title>
<path fill="none" stroke="#9ca3af" stroke-width="1.5" stroke-dasharray="5,2" d="M1660.46,-826.54C1626.92,-813.81 1591.66,-793.61 1572,-762 1540.25,-710.96 1611.08,-670.18 1671.36,-646.09"/>
<polygon fill="#9ca3af" stroke="#9ca3af" stroke-width="1.5" points="1672.6,-648.61 1679.03,-643.09 1670.56,-643.39 1672.6,-648.61"/>
<text text-anchor="middle" x="1581.5" y="-753.2" font-family="Helvetica,sans-Serif" font-size="11.00" fill="#9ca3af">[S] 1 optional</text>
</g>
<!-- GEO -->
<g id="node7" class="node">
<title>GEO</title>
<path fill="#f0fdfa" stroke="#2dd4bf" stroke-width="2" d="M1766.5,-1354C1766.5,-1354 1722.5,-1354 1722.5,-1354 1716.5,-1354 1710.5,-1348 1710.5,-1342 1710.5,-1342 1710.5,-1324 1710.5,-1324 1710.5,-1318 1716.5,-1312 1722.5,-1312 1722.5,-1312 1766.5,-1312 1766.5,-1312 1772.5,-1312 1778.5,-1318 1778.5,-1324 1778.5,-1324 1778.5,-1342 1778.5,-1342 1778.5,-1348 1772.5,-1354 1766.5,-1354"/>
<text text-anchor="middle" x="1744.5" y="-1329.2" font-family="Helvetica,sans-Serif" font-size="16.00">GEO</text>
</g>
<!-- GEO&#45;&gt;AUTH / IAM -->
<g id="edge25" class="edge">
<title>GEO&#45;&gt;AUTH / IAM</title>
<path fill="none" stroke="#9ca3af" stroke-width="1.5" stroke-dasharray="5,2" d="M1742.02,-1354.09C1736.84,-1410.01 1714.18,-1562.11 1619,-1625 1482.78,-1715 1410.98,-1614.03 1258,-1557 1077.95,-1489.88 994.22,-1454.81 932,-1273 901.96,-1185.21 961.15,-923.07 896,-857 797.46,-757.07 616.6,-775.39 517.83,-795.09"/>
<polygon fill="#9ca3af" stroke="#9ca3af" stroke-width="1.5" points="516.98,-792.41 509.7,-796.76 518.1,-797.9 516.98,-792.41"/>
<text text-anchor="middle" x="1295.5" y="-1593.2" font-family="Helvetica,sans-Serif" font-size="11.00" fill="#9ca3af">[S] 1 optional</text>
</g>
<!-- GEO&#45;&gt;CONSUMER -->
<g id="edge26" class="edge">
<title>GEO&#45;&gt;CONSUMER</title>
<path fill="none" stroke="#818cf8" stroke-width="2" d="M1740.52,-1354.21C1732.13,-1404.9 1703.14,-1532.72 1619,-1585 1590.69,-1602.59 1574.87,-1597.57 1544,-1585 1379.52,-1518.06 1353,-1456.02 1258,-1306 1221.29,-1248.03 1162.81,-1048.08 1141.55,-972.89"/>
<polygon fill="#818cf8" stroke="#818cf8" stroke-width="2" points="1144.25,-972.12 1139.38,-965.18 1138.86,-973.64 1144.25,-972.12"/>
<text text-anchor="middle" x="1438.5" y="-1570.2" font-family="Helvetica,sans-Serif" font-size="11.00" fill="#818cf8">[R] 1 has</text>
</g>
<!-- GEO&#45;&gt;RESTAURANT -->
<g id="edge31" class="edge">
<title>GEO&#45;&gt;RESTAURANT</title>
<path fill="none" stroke="#818cf8" stroke-width="2" d="M1733.66,-1354.19C1704.86,-1413.54 1618.05,-1573.01 1544,-1510 1467.87,-1445.22 1554.7,-1376.37 1508,-1288 1500.24,-1273.31 1487.89,-1260.07 1475.8,-1249.42"/>
<polygon fill="#818cf8" stroke="#818cf8" stroke-width="2" points="1477.44,-1247.14 1469.52,-1244.1 1473.81,-1251.41 1477.44,-1247.14"/>
<text text-anchor="middle" x="1581.5" y="-1527.2" font-family="Helvetica,sans-Serif" font-size="11.00" fill="#818cf8">[R] 1 has</text>
</g>
<!-- GEO&#45;&gt;RESTAURANT -->
<g id="edge32" class="edge">
<title>GEO&#45;&gt;RESTAURANT</title>
<path fill="none" stroke="#9ca3af" stroke-width="1.5" stroke-dasharray="5,2" d="M1735.77,-1354.15C1710.31,-1420.88 1625.98,-1618.37 1544,-1547 1500.17,-1508.84 1534.57,-1339.68 1508,-1288 1500.4,-1273.22 1488.09,-1259.96 1475.98,-1249.33"/>
<polygon fill="#9ca3af" stroke="#9ca3af" stroke-width="1.5" points="1477.61,-1247.04 1469.69,-1244.01 1473.99,-1251.32 1477.61,-1247.04"/>
<text text-anchor="middle" x="1581.5" y="-1565.2" font-family="Helvetica,sans-Serif" font-size="11.00" fill="#9ca3af">[S] 2 optional</text>
</g>
<!-- GEO&#45;&gt;DROP / CATALOG -->
<g id="edge27" class="edge">
<title>GEO&#45;&gt;DROP / CATALOG</title>
<path fill="none" stroke="#818cf8" stroke-width="2" d="M1710.39,-1321.57C1688.84,-1312.58 1662.28,-1297.85 1647,-1276 1600.34,-1209.26 1539.03,-982.89 1584,-915 1599.89,-891.02 1626.11,-875.47 1652.79,-865.4"/>
<polygon fill="#818cf8" stroke="#818cf8" stroke-width="2" points="1653.74,-868.03 1660.33,-862.7 1651.85,-862.76 1653.74,-868.03"/>
<text text-anchor="middle" x="1581.5" y="-918.2" font-family="Helvetica,sans-Serif" font-size="11.00" fill="#818cf8">[R] 1 has</text>
</g>
<!-- GEO&#45;&gt;DROP / CATALOG -->
<g id="edge28" class="edge">
<title>GEO&#45;&gt;DROP / CATALOG</title>
<path fill="none" stroke="#9ca3af" stroke-width="1.5" stroke-dasharray="5,2" d="M1710.39,-1321.57C1688.84,-1312.58 1662.28,-1297.85 1647,-1276 1600.34,-1209.26 1539.03,-982.89 1584,-915 1599.89,-891.02 1626.11,-875.47 1652.79,-865.4"/>
<polygon fill="#9ca3af" stroke="#9ca3af" stroke-width="1.5" points="1653.74,-868.03 1660.33,-862.7 1651.85,-862.76 1653.74,-868.03"/>
<text text-anchor="middle" x="1581.5" y="-918.2" font-family="Helvetica,sans-Serif" font-size="11.00" fill="#9ca3af">[S] 1 optional</text>
</g>
<!-- GEO&#45;&gt;MARKETING / CMS -->
<g id="edge29" class="edge">
<title>GEO&#45;&gt;MARKETING / CMS</title>
<path fill="none" stroke="#f87171" stroke-width="3" d="M1710.46,-1326.42C1671.05,-1316.78 1607.93,-1294.63 1579.5,-1248 1527.43,-1162.6 1600.41,-891.51 1647,-803 1660.95,-776.5 1685.51,-753.39 1706.49,-736.97"/>
<polygon fill="#f87171" stroke="#f87171" stroke-width="3" points="1708.22,-739.17 1712.87,-732.09 1704.82,-734.72 1708.22,-739.17"/>
<text text-anchor="middle" x="1581.5" y="-1239.2" font-family="Helvetica,sans-Serif" font-size="11.00" fill="#f87171">[C] 1 owns</text>
</g>
<!-- GEO&#45;&gt;MARKETING / CMS -->
<g id="edge30" class="edge">
<title>GEO&#45;&gt;MARKETING / CMS</title>
<path fill="none" stroke="#9ca3af" stroke-width="1.5" stroke-dasharray="5,2" d="M1710.46,-1326.42C1671.05,-1316.78 1607.93,-1294.63 1579.5,-1248 1527.43,-1162.6 1600.41,-891.51 1647,-803 1660.95,-776.5 1685.51,-753.39 1706.49,-736.97"/>
<polygon fill="#9ca3af" stroke="#9ca3af" stroke-width="1.5" points="1708.22,-739.17 1712.87,-732.09 1704.82,-734.72 1708.22,-739.17"/>
<text text-anchor="middle" x="1581.5" y="-1239.2" font-family="Helvetica,sans-Serif" font-size="11.00" fill="#9ca3af">[S] 2 optional</text>
</g>
<!-- MARKETING / CMS&#45;&gt;SUPPORT / INCIDENT -->
<g id="edge33" class="edge">
<title>MARKETING / CMS&#45;&gt;SUPPORT / INCIDENT</title>
<path fill="none" stroke="#9ca3af" stroke-width="1.5" stroke-dasharray="5,2" d="M1824.53,-689.91C1875.01,-676.44 1940.48,-658.97 1992.36,-645.12"/>
<polygon fill="#9ca3af" stroke="#9ca3af" stroke-width="1.5" points="1993.24,-647.79 2000.24,-643.02 1991.79,-642.37 1993.24,-647.79"/>
<text text-anchor="middle" x="1907.5" y="-680.2" font-family="Helvetica,sans-Serif" font-size="11.00" fill="#9ca3af">[S] 1 optional</text>
</g>
<!-- SUPPORT / INCIDENT&#45;&gt;MARKETING / CMS -->
<g id="edge51" class="edge">
<title>SUPPORT / INCIDENT&#45;&gt;MARKETING / CMS</title>
<path fill="none" stroke="#9ca3af" stroke-width="1.5" stroke-dasharray="5,2" d="M2051.24,-643.11C2025.3,-661.53 1984.71,-687.11 1945,-699 1912.52,-708.72 1875.76,-712.77 1842.73,-714.06"/>
<polygon fill="#9ca3af" stroke="#9ca3af" stroke-width="1.5" points="1842.33,-711.27 1834.42,-714.33 1842.51,-716.87 1842.33,-711.27"/>
<text text-anchor="middle" x="1907.5" y="-714.2" font-family="Helvetica,sans-Serif" font-size="11.00" fill="#9ca3af">[S] 1 optional</text>
</g>
<!-- SHARED / OPS&#45;&gt;AUTH / IAM -->
<g id="edge45" class="edge">
<title>SHARED / OPS&#45;&gt;AUTH / IAM</title>
<path fill="none" stroke="#818cf8" stroke-width="2" d="M1731.1,-600.78C1711.72,-570 1671.02,-514.21 1619,-492 1383.26,-391.36 1291.42,-457.85 1043,-521 817.93,-578.22 577.77,-726.63 486.82,-786.45"/>
<polygon fill="#818cf8" stroke="#818cf8" stroke-width="2" points="485.15,-784.2 480.02,-790.95 488.23,-788.87 485.15,-784.2"/>
<text text-anchor="middle" x="1295.5" y="-464.2" font-family="Helvetica,sans-Serif" font-size="11.00" fill="#818cf8">[R] 1 has</text>
</g>
<!-- SHARED / OPS&#45;&gt;CONSUMER -->
<g id="edge46" class="edge">
<title>SHARED / OPS&#45;&gt;CONSUMER</title>
<path fill="none" stroke="#818cf8" stroke-width="2" d="M1675.58,-600.98C1632.84,-592.28 1579.29,-590.33 1544,-621 1457.28,-696.38 1587.71,-794.25 1508,-877 1467.04,-919.52 1300.63,-935.33 1203.97,-941"/>
<polygon fill="#818cf8" stroke="#818cf8" stroke-width="2" points="1203.53,-938.22 1195.7,-941.47 1203.85,-943.81 1203.53,-938.22"/>
<text text-anchor="middle" x="1438.5" y="-926.2" font-family="Helvetica,sans-Serif" font-size="11.00" fill="#818cf8">[R] 1 has</text>
</g>
<!-- SHARED / OPS&#45;&gt;RESTAURANT -->
<g id="edge48" class="edge">
<title>SHARED / OPS&#45;&gt;RESTAURANT</title>
<path fill="none" stroke="#818cf8" stroke-width="2" d="M1670.17,-621.58C1626.68,-625.53 1574.3,-638.44 1544,-675 1474.18,-759.23 1558.03,-1068.71 1508,-1166 1501.85,-1177.96 1491.97,-1188.38 1481.61,-1196.91"/>
<polygon fill="#818cf8" stroke="#818cf8" stroke-width="2" points="1479.71,-1194.85 1475.13,-1201.98 1483.16,-1199.26 1479.71,-1194.85"/>
<text text-anchor="middle" x="1581.5" y="-678.2" font-family="Helvetica,sans-Serif" font-size="11.00" fill="#818cf8">[R] 4 has</text>
</g>
<!-- SHARED / OPS&#45;&gt;DROP / CATALOG -->
<g id="edge47" class="edge">
<title>SHARED / OPS&#45;&gt;DROP / CATALOG</title>
<path fill="none" stroke="#818cf8" stroke-width="2" d="M1684.49,-643.1C1671.25,-649.48 1657.93,-657.41 1647,-667 1604.08,-704.68 1552.46,-731.39 1584,-779 1599.89,-802.98 1626.11,-818.53 1652.79,-828.6"/>
<polygon fill="#818cf8" stroke="#818cf8" stroke-width="2" points="1651.85,-831.24 1660.33,-831.3 1653.74,-825.97 1651.85,-831.24"/>
<text text-anchor="middle" x="1581.5" y="-770.2" font-family="Helvetica,sans-Serif" font-size="11.00" fill="#818cf8">[R] 3 has</text>
</g>
<!-- SHARED / OPS&#45;&gt;SUPPORT / INCIDENT -->
<g id="edge49" class="edge">
<title>SHARED / OPS&#45;&gt;SUPPORT / INCIDENT</title>
<path fill="none" stroke="#818cf8" stroke-width="2" d="M1775.51,-600.69C1799.72,-584.87 1835.34,-564.62 1870,-556 1902.35,-547.96 1912.54,-548.44 1945,-556 1978.94,-563.9 2014.16,-581.69 2039.98,-596.81"/>
<polygon fill="#818cf8" stroke="#818cf8" stroke-width="2" points="2038.69,-599.31 2047,-601 2041.56,-594.5 2038.69,-599.31"/>
<text text-anchor="middle" x="1907.5" y="-559.2" font-family="Helvetica,sans-Serif" font-size="11.00" fill="#818cf8">[R] 6 has</text>
</g>
<!-- SHARED / OPS&#45;&gt;SUPPORT / INCIDENT -->
<g id="edge50" class="edge">
<title>SHARED / OPS&#45;&gt;SUPPORT / INCIDENT</title>
<path fill="none" stroke="#9ca3af" stroke-width="1.5" stroke-dasharray="5,2" d="M1818.57,-620.63C1835.46,-620.37 1853.36,-620.13 1870,-620 1903.33,-619.73 1911.67,-619.75 1945,-620 1954,-620.07 1963.33,-620.16 1972.7,-620.27"/>
<polygon fill="#9ca3af" stroke="#9ca3af" stroke-width="1.5" points="1972.9,-623.07 1980.94,-620.37 1972.97,-617.47 1972.9,-623.07"/>
<text text-anchor="middle" x="1907.5" y="-623.2" font-family="Helvetica,sans-Serif" font-size="11.00" fill="#9ca3af">[S] 2 optional</text>
</g>
<!-- legend -->
<g id="node11" class="node">
<title>legend</title>
<path fill="#111827" stroke="transparent" d="M884,-1062C884,-1062 12,-1062 12,-1062 6,-1062 0,-1056 0,-1050 0,-1050 0,-892 0,-892 0,-886 6,-880 12,-880 12,-880 884,-880 884,-880 890,-880 896,-886 896,-892 896,-892 896,-1050 896,-1050 896,-1056 890,-1062 884,-1062"/>
<text text-anchor="start" x="415" y="-1043.2" font-family="Helvetica,sans-Serif" font-weight="bold" font-size="16.00">Legend</text>
<text text-anchor="start" x="7" y="-1012.2" font-family="Helvetica,sans-Serif" font-size="16.00">[C] Cascade — red solid 3pt</text>
<text text-anchor="start" x="7" y="-982.2" font-family="Helvetica,sans-Serif" font-size="16.00">[R] Restrict — indigo solid 2pt</text>
<text text-anchor="start" x="7" y="-952.2" font-family="Helvetica,sans-Serif" font-size="16.00">[S] Set Null — gray dashed 1.5pt</text>
<text text-anchor="start" x="7" y="-922.2" font-family="Helvetica,sans-Serif" font-size="16.00">[L] Logical — teal solid 1.5pt</text>
<text text-anchor="start" x="7" y="-892.2" font-family="Helvetica,sans-Serif" font-size="16.00">Text colors → violet uuid, blue string, green integer, orange boolean, brown datetime, gold money, cyan json</text>
<polygon fill="none" stroke="#111827" points="0,-880 0,-1062 896,-1062 896,-880 0,-880"/>
</g>
</g>
</svg>
