<?xml version="1.0" encoding="UTF-8" standalone="no"?>
<!DOCTYPE svg PUBLIC "-//W3C//DTD SVG 1.1//EN"
 "http://www.w3.org/Graphics/SVG/1.1/DTD/svg11.dtd">
<!-- Generated by graphviz version 2.42.4 (0)
 -->
<!-- Title: G Pages: 1 -->
<svg width="2999pt" height="1862pt"
 viewBox="0.00 0.00 2999.20 1862.22" xmlns="http://www.w3.org/2000/svg" xmlns:xlink="http://www.w3.org/1999/xlink">
<g id="graph0" class="graph" transform="scale(1 1) rotate(0) translate(21.6 1840.62)">
<title>G</title>
<polygon fill="white" stroke="transparent" points="-21.6,21.6 -21.6,-1840.62 2977.6,-1840.62 2977.6,21.6 -21.6,21.6"/>
<text text-anchor="middle" x="124.5" y="-1799.02" font-family="Helvetica,sans-Serif" font-size="20.00">Marketing Cms Context</text>
<g id="clust1" class="cluster">
<title>cluster_main_1</title>
<path fill="#fefce8" stroke="#facc15" stroke-width="1.5" d="M1894.5,-255.02C1894.5,-255.02 2936,-255.02 2936,-255.02 2942,-255.02 2948,-261.02 2948,-267.02 2948,-267.02 2948,-1769.02 2948,-1769.02 2948,-1775.02 2942,-1781.02 2936,-1781.02 2936,-1781.02 1894.5,-1781.02 1894.5,-1781.02 1888.5,-1781.02 1882.5,-1775.02 1882.5,-1769.02 1882.5,-1769.02 1882.5,-267.02 1882.5,-267.02 1882.5,-261.02 1888.5,-255.02 1894.5,-255.02"/>
<text text-anchor="middle" x="1982" y="-1761.02" font-family="Helvetica,sans-Serif" font-size="20.00">MARKETING / CMS</text>
</g>
<g id="clust2" class="cluster">
<title>cluster_ext_1</title>
<path fill="white" stroke="#818cf8" stroke-dasharray="5,2" d="M796,-607.02C796,-607.02 1042,-607.02 1042,-607.02 1048,-607.02 1054,-613.02 1054,-619.02 1054,-619.02 1054,-771.02 1054,-771.02 1054,-777.02 1048,-783.02 1042,-783.02 1042,-783.02 796,-783.02 796,-783.02 790,-783.02 784,-777.02 784,-771.02 784,-771.02 784,-619.02 784,-619.02 784,-613.02 790,-607.02 796,-607.02"/>
<text text-anchor="middle" x="919" y="-763.02" font-family="Helvetica,sans-Serif" font-size="20.00">External refs · AUTH / IAM</text>
</g>
<g id="clust3" class="cluster">
<title>cluster_ext_2</title>
<path fill="white" stroke="#a78bfa" stroke-dasharray="5,2" d="M1274.5,-525.02C1274.5,-525.02 1526.5,-525.02 1526.5,-525.02 1532.5,-525.02 1538.5,-531.02 1538.5,-537.02 1538.5,-537.02 1538.5,-641.02 1538.5,-641.02 1538.5,-647.02 1532.5,-653.02 1526.5,-653.02 1526.5,-653.02 1274.5,-653.02 1274.5,-653.02 1268.5,-653.02 1262.5,-647.02 1262.5,-641.02 1262.5,-641.02 1262.5,-537.02 1262.5,-537.02 1262.5,-531.02 1268.5,-525.02 1274.5,-525.02"/>
<text text-anchor="middle" x="1400.5" y="-633.02" font-family="Helvetica,sans-Serif" font-size="20.00">External refs · CONSUMER</text>
</g>
<g id="clust4" class="cluster">
<title>cluster_ext_3</title>
<path fill="white" stroke="#38bdf8" stroke-dasharray="5,2" d="M1248,-357.02C1248,-357.02 1552,-357.02 1552,-357.02 1558,-357.02 1564,-363.02 1564,-369.02 1564,-369.02 1564,-505.02 1564,-505.02 1564,-511.02 1558,-517.02 1552,-517.02 1552,-517.02 1248,-517.02 1248,-517.02 1242,-517.02 1236,-511.02 1236,-505.02 1236,-505.02 1236,-369.02 1236,-369.02 1236,-363.02 1242,-357.02 1248,-357.02"/>
<text text-anchor="middle" x="1400" y="-497.02" font-family="Helvetica,sans-Serif" font-size="20.00">External refs · DROP / CATALOG</text>
</g>
<g id="clust5" class="cluster">
<title>cluster_ext_4</title>
<path fill="white" stroke="#2dd4bf" stroke-dasharray="5,2" d="M216.5,-1009.02C216.5,-1009.02 395.5,-1009.02 395.5,-1009.02 401.5,-1009.02 407.5,-1015.02 407.5,-1021.02 407.5,-1021.02 407.5,-1173.02 407.5,-1173.02 407.5,-1179.02 401.5,-1185.02 395.5,-1185.02 395.5,-1185.02 216.5,-1185.02 216.5,-1185.02 210.5,-1185.02 204.5,-1179.02 204.5,-1173.02 204.5,-1173.02 204.5,-1021.02 204.5,-1021.02 204.5,-1015.02 210.5,-1009.02 216.5,-1009.02"/>
<text text-anchor="middle" x="306" y="-1165.02" font-family="Helvetica,sans-Serif" font-size="20.00">External refs · GEO</text>
</g>
<g id="clust6" class="cluster">
<title>cluster_ext_5</title>
<path fill="white" stroke="#fb923c" stroke-dasharray="5,2" d="M1266.5,-173.02C1266.5,-173.02 1533.5,-173.02 1533.5,-173.02 1539.5,-173.02 1545.5,-179.02 1545.5,-185.02 1545.5,-185.02 1545.5,-337.02 1545.5,-337.02 1545.5,-343.02 1539.5,-349.02 1533.5,-349.02 1533.5,-349.02 1266.5,-349.02 1266.5,-349.02 1260.5,-349.02 1254.5,-343.02 1254.5,-337.02 1254.5,-337.02 1254.5,-185.02 1254.5,-185.02 1254.5,-179.02 1260.5,-173.02 1266.5,-173.02"/>
<text text-anchor="middle" x="1400" y="-329.02" font-family="Helvetica,sans-Serif" font-size="20.00">External refs · RESTAURANT</text>
</g>
<g id="clust7" class="cluster">
<title>cluster_ext_6</title>
<path fill="white" stroke="#fb7185" stroke-dasharray="5,2" d="M1795,-37.02C1795,-37.02 2138,-37.02 2138,-37.02 2144,-37.02 2150,-43.02 2150,-49.02 2150,-49.02 2150,-169.02 2150,-169.02 2150,-175.02 2144,-181.02 2138,-181.02 2138,-181.02 1795,-181.02 1795,-181.02 1789,-181.02 1783,-175.02 1783,-169.02 1783,-169.02 1783,-49.02 1783,-49.02 1783,-43.02 1789,-37.02 1795,-37.02"/>
<text text-anchor="middle" x="1966.5" y="-161.02" font-family="Helvetica,sans-Serif" font-size="20.00">External refs · SUPPORT / INCIDENT</text>
</g>
<!-- cms_banner -->
<g id="node1" class="node">
<title>cms_banner</title>
<polygon fill="#fefce8" stroke="transparent" points="1915.5,-1725.02 1915.5,-1743.02 2018.5,-1743.02 2018.5,-1725.02 1915.5,-1725.02"/>
<polygon fill="none" stroke="#facc15" points="1915.5,-1725.02 1915.5,-1743.02 2018.5,-1743.02 2018.5,-1725.02 1915.5,-1725.02"/>
<text text-anchor="start" x="1930.5" y="-1732.22" font-family="Helvetica,sans-Serif" font-weight="bold" font-size="11.00">cms_banner</text>
<text text-anchor="start" x="1917.5" y="-1714.22" font-family="Helvetica,sans-Serif" font-size="11.00" fill="#38bdf8">banner_code</text>
<text text-anchor="start" x="1917.5" y="-1698.22" font-family="Helvetica,sans-Serif" font-size="11.00" fill="#38bdf8">banner_title</text>
<text text-anchor="start" x="1917.5" y="-1682.22" font-family="Helvetica,sans-Serif" font-size="11.00" fill="#38bdf8">placement_code</text>
<text text-anchor="start" x="1917.5" y="-1666.22" font-family="Helvetica,sans-Serif" font-size="11.00" fill="#fb923c">is_active</text>
<text text-anchor="start" x="1917.5" y="-1650.22" font-family="Helvetica,sans-Serif" font-size="11.00" fill="#38bdf8">banner_body_text</text>
<text text-anchor="start" x="1917.5" y="-1634.22" font-family="Helvetica,sans-Serif" font-size="11.00" fill="#a16207">ends_at</text>
<text text-anchor="start" x="1917.5" y="-1618.22" font-family="Helvetica,sans-Serif" font-size="11.00" fill="#a16207">starts_at</text>
<text text-anchor="start" x="1917.5" y="-1602.22" font-family="Helvetica,sans-Serif" font-size="11.00" fill="#38bdf8">target_url</text>
</g>
<!-- cms_city_page -->
<g id="node2" class="node">
<title>cms_city_page</title>
<polygon fill="#fefce8" stroke="transparent" points="1919.5,-1543.02 1919.5,-1561.02 2014.5,-1561.02 2014.5,-1543.02 1919.5,-1543.02"/>
<polygon fill="none" stroke="#facc15" points="1919.5,-1543.02 1919.5,-1561.02 2014.5,-1561.02 2014.5,-1543.02 1919.5,-1543.02"/>
<text text-anchor="start" x="1922.5" y="-1550.22" font-family="Helvetica,sans-Serif" font-weight="bold" font-size="11.00">cms_city_page</text>
<text text-anchor="start" x="1921.5" y="-1532.22" font-family="Helvetica,sans-Serif" font-size="11.00" fill="#38bdf8">city_page_title</text>
<text text-anchor="start" x="1921.5" y="-1516.22" font-family="Helvetica,sans-Serif" font-size="11.00" fill="#fb923c">is_published</text>
<text text-anchor="start" x="1921.5" y="-1500.22" font-family="Helvetica,sans-Serif" font-size="11.00" fill="#a16207">published_at</text>
<text text-anchor="start" x="1921.5" y="-1484.22" font-family="Helvetica,sans-Serif" font-size="11.00" fill="#38bdf8">body_markdown</text>
<text text-anchor="start" x="1921.5" y="-1468.22" font-family="Helvetica,sans-Serif" font-size="11.00" fill="#38bdf8">hero_text</text>
</g>
<!-- cms_page -->
<g id="node3" class="node">
<title>cms_page</title>
<polygon fill="#fefce8" stroke="transparent" points="1915.5,-1409.02 1915.5,-1427.02 2018.5,-1427.02 2018.5,-1409.02 1915.5,-1409.02"/>
<polygon fill="none" stroke="#facc15" points="1915.5,-1409.02 1915.5,-1427.02 2018.5,-1427.02 2018.5,-1409.02 1915.5,-1409.02"/>
<text text-anchor="start" x="1936.5" y="-1416.22" font-family="Helvetica,sans-Serif" font-weight="bold" font-size="11.00">cms_page</text>
<text text-anchor="start" x="1917.5" y="-1398.22" font-family="Helvetica,sans-Serif" font-size="11.00" fill="#38bdf8">page_status_code</text>
<text text-anchor="start" x="1917.5" y="-1382.22" font-family="Helvetica,sans-Serif" font-size="11.00" fill="#38bdf8">page_code</text>
<text text-anchor="start" x="1917.5" y="-1366.22" font-family="Helvetica,sans-Serif" font-size="11.00" fill="#38bdf8">page_title</text>
<text text-anchor="start" x="1917.5" y="-1350.22" font-family="Helvetica,sans-Serif" font-size="11.00" fill="#a16207">published_at</text>
<text text-anchor="start" x="1917.5" y="-1334.22" font-family="Helvetica,sans-Serif" font-size="11.00" fill="#38bdf8">body_markdown</text>
</g>
<!-- cms_post -->
<g id="node4" class="node">
<title>cms_post</title>
<polygon fill="#fefce8" stroke="transparent" points="1916.5,-1275.02 1916.5,-1293.02 2016.5,-1293.02 2016.5,-1275.02 1916.5,-1275.02"/>
<polygon fill="none" stroke="#facc15" points="1916.5,-1275.02 1916.5,-1293.02 2016.5,-1293.02 2016.5,-1275.02 1916.5,-1275.02"/>
<text text-anchor="start" x="1937.5" y="-1282.22" font-family="Helvetica,sans-Serif" font-weight="bold" font-size="11.00">cms_post</text>
<text text-anchor="start" x="1918.5" y="-1264.22" font-family="Helvetica,sans-Serif" font-size="11.00" fill="#38bdf8">post_status_code</text>
<text text-anchor="start" x="1918.5" y="-1248.22" font-family="Helvetica,sans-Serif" font-size="11.00" fill="#38bdf8">post_slug</text>
<text text-anchor="start" x="1918.5" y="-1232.22" font-family="Helvetica,sans-Serif" font-size="11.00" fill="#38bdf8">post_title</text>
<text text-anchor="start" x="1918.5" y="-1216.22" font-family="Helvetica,sans-Serif" font-size="11.00" fill="#a16207">published_at</text>
<text text-anchor="start" x="1918.5" y="-1200.22" font-family="Helvetica,sans-Serif" font-size="11.00" fill="#38bdf8">body_markdown</text>
<text text-anchor="start" x="1918.5" y="-1184.22" font-family="Helvetica,sans-Serif" font-size="11.00" fill="#38bdf8">excerpt_text</text>
</g>
<!-- cms_restaurant_feature -->
<g id="node5" class="node">
<title>cms_restaurant_feature</title>
<polygon fill="#fefce8" stroke="transparent" points="1890.5,-493.02 1890.5,-511.02 2042.5,-511.02 2042.5,-493.02 1890.5,-493.02"/>
<polygon fill="none" stroke="#facc15" points="1890.5,-493.02 1890.5,-511.02 2042.5,-511.02 2042.5,-493.02 1890.5,-493.02"/>
<text text-anchor="start" x="1893.5" y="-500.22" font-family="Helvetica,sans-Serif" font-weight="bold" font-size="11.00">cms_restaurant_feature</text>
<text text-anchor="start" x="1892.5" y="-482.22" font-family="Helvetica,sans-Serif" font-size="11.00" fill="#38bdf8">feature_title</text>
<text text-anchor="start" x="1892.5" y="-466.22" font-family="Helvetica,sans-Serif" font-size="11.00" fill="#fb923c">is_published</text>
<text text-anchor="start" x="1892.5" y="-450.22" font-family="Helvetica,sans-Serif" font-size="11.00" fill="#a16207">published_at</text>
<text text-anchor="start" x="1892.5" y="-434.22" font-family="Helvetica,sans-Serif" font-size="11.00" fill="#38bdf8">feature_body_markdown</text>
</g>
<!-- cms_seo_metadata -->
<g id="node6" class="node">
<title>cms_seo_metadata</title>
<polygon fill="#fefce8" stroke="transparent" points="1905.5,-627.02 1905.5,-645.02 2028.5,-645.02 2028.5,-627.02 1905.5,-627.02"/>
<polygon fill="none" stroke="#facc15" points="1905.5,-627.02 1905.5,-645.02 2028.5,-645.02 2028.5,-627.02 1905.5,-627.02"/>
<text text-anchor="start" x="1908.5" y="-634.22" font-family="Helvetica,sans-Serif" font-weight="bold" font-size="11.00">cms_seo_metadata</text>
<text text-anchor="start" x="1907.5" y="-616.22" font-family="Helvetica,sans-Serif" font-size="11.00" fill="#38bdf8">entity_type_code</text>
<text text-anchor="start" x="1907.5" y="-600.22" font-family="Helvetica,sans-Serif" font-size="11.00" fill="#38bdf8">seo_title</text>
<text text-anchor="start" x="1907.5" y="-584.22" font-family="Helvetica,sans-Serif" font-size="11.00" fill="#38bdf8">canonical_url</text>
<text text-anchor="start" x="1907.5" y="-568.22" font-family="Helvetica,sans-Serif" font-size="11.00" fill="#a78bfa">entity_pk</text>
<text text-anchor="start" x="1907.5" y="-552.22" font-family="Helvetica,sans-Serif" font-size="11.00" fill="#38bdf8">seo_description</text>
</g>
<!-- marketing_partner_lead -->
<g id="node7" class="node">
<title>marketing_partner_lead</title>
<polygon fill="#fefce8" stroke="transparent" points="1891.5,-1125.02 1891.5,-1143.02 2042.5,-1143.02 2042.5,-1125.02 1891.5,-1125.02"/>
<polygon fill="none" stroke="#facc15" points="1891.5,-1125.02 1891.5,-1143.02 2042.5,-1143.02 2042.5,-1125.02 1891.5,-1125.02"/>
<text text-anchor="start" x="1894.5" y="-1132.22" font-family="Helvetica,sans-Serif" font-weight="bold" font-size="11.00">marketing_partner_lead</text>
<text text-anchor="start" x="1893.5" y="-1114.22" font-family="Helvetica,sans-Serif" font-size="11.00" fill="#38bdf8">qualification_status_code</text>
<text text-anchor="start" x="1893.5" y="-1098.22" font-family="Helvetica,sans-Serif" font-size="11.00" fill="#38bdf8">contact_name</text>
<text text-anchor="start" x="1893.5" y="-1082.22" font-family="Helvetica,sans-Serif" font-size="11.00" fill="#38bdf8">restaurant_name</text>
<text text-anchor="start" x="1893.5" y="-1066.22" font-family="Helvetica,sans-Serif" font-size="11.00" fill="#38bdf8">source_campaign_code</text>
<text text-anchor="start" x="1893.5" y="-1050.22" font-family="Helvetica,sans-Serif" font-size="11.00" fill="#38bdf8">source_page_code</text>
<text text-anchor="start" x="1893.5" y="-1034.22" font-family="Helvetica,sans-Serif" font-size="11.00" fill="#fb923c">consent_captured_flag</text>
<text text-anchor="start" x="1893.5" y="-1018.22" font-family="Helvetica,sans-Serif" font-size="11.00" fill="#38bdf8">city_text</text>
<text text-anchor="start" x="1893.5" y="-1002.22" font-family="Helvetica,sans-Serif" font-size="11.00" fill="#38bdf8">cuisine_text</text>
</g>
<!-- support_ticket -->
<g id="node18" class="node">
<title>support_ticket</title>
<polygon fill="#fff1f2" stroke="transparent" points="1887.5,-125.02 1887.5,-143.02 2046.5,-143.02 2046.5,-125.02 1887.5,-125.02"/>
<polygon fill="none" stroke="#fb7185" points="1887.5,-125.02 1887.5,-143.02 2046.5,-143.02 2046.5,-125.02 1887.5,-125.02"/>
<text text-anchor="start" x="1923" y="-132.22" font-family="Helvetica,sans-Serif" font-weight="bold" font-size="11.00">support_ticket</text>
<text text-anchor="start" x="1889.5" y="-114.22" font-family="Helvetica,sans-Serif" font-size="11.00" fill="#a16207">sla_due_at</text>
<text text-anchor="start" x="1889.5" y="-98.22" font-family="Helvetica,sans-Serif" font-size="11.00" fill="#38bdf8">description_text</text>
<text text-anchor="start" x="1889.5" y="-82.22" font-family="Helvetica,sans-Serif" font-size="11.00" fill="#38bdf8">requester_idempotency_key</text>
<text text-anchor="start" x="1889.5" y="-66.22" font-family="Helvetica,sans-Serif" font-size="11.00" fill="#a16207">resolved_at</text>
<text text-anchor="start" x="1889.5" y="-50.22" font-family="Helvetica,sans-Serif" font-size="11.00" fill="#38bdf8">subject_text</text>
</g>
<!-- marketing_partner_lead&#45;&gt;support_ticket -->
<g id="edge15" class="edge">
<title>marketing_partner_lead&#45;&gt;support_ticket</title>
<path fill="none" stroke="#9ca3af" stroke-width="1.5" stroke-dasharray="5,2" d="M1890.65,-1047.42C1853.83,-1033.06 1811.5,-1011.02 1783,-979.02 1646.42,-825.67 1581.61,-742.6 1630,-543.02 1664.98,-398.72 1689.94,-361.73 1783,-246.02 1813.02,-208.69 1853.43,-174.03 1888.69,-147.27"/>
<polygon fill="#9ca3af" stroke="#9ca3af" stroke-width="1.5" points="1890.19,-149.21 1894.3,-143.04 1887.24,-145.29 1890.19,-149.21"/>
<text text-anchor="middle" x="1673.5" y="-545.82" font-family="Helvetica,sans-Serif" font-size="9.00" fill="#9ca3af">[S] optional · marketing_partner_lead_fk</text>
</g>
<!-- marketing_waitlist_lead -->
<g id="node8" class="node">
<title>marketing_waitlist_lead</title>
<polygon fill="#fefce8" stroke="transparent" points="1890.5,-943.02 1890.5,-961.02 2042.5,-961.02 2042.5,-943.02 1890.5,-943.02"/>
<polygon fill="none" stroke="#facc15" points="1890.5,-943.02 1890.5,-961.02 2042.5,-961.02 2042.5,-943.02 1890.5,-943.02"/>
<text text-anchor="start" x="1893.5" y="-950.22" font-family="Helvetica,sans-Serif" font-weight="bold" font-size="11.00">marketing_waitlist_lead</text>
<text text-anchor="start" x="1892.5" y="-932.22" font-family="Helvetica,sans-Serif" font-size="11.00" fill="#38bdf8">lead_type_code</text>
<text text-anchor="start" x="1892.5" y="-916.22" font-family="Helvetica,sans-Serif" font-size="11.00" fill="#38bdf8">full_name</text>
<text text-anchor="start" x="1892.5" y="-900.22" font-family="Helvetica,sans-Serif" font-size="11.00" fill="#38bdf8">source_campaign_code</text>
<text text-anchor="start" x="1892.5" y="-884.22" font-family="Helvetica,sans-Serif" font-size="11.00" fill="#38bdf8">source_page_code</text>
<text text-anchor="start" x="1892.5" y="-868.22" font-family="Helvetica,sans-Serif" font-size="11.00" fill="#fb923c">consent_captured_flag</text>
<text text-anchor="start" x="1892.5" y="-852.22" font-family="Helvetica,sans-Serif" font-size="11.00" fill="#38bdf8">city_text</text>
<text text-anchor="start" x="1892.5" y="-836.22" font-family="Helvetica,sans-Serif" font-size="11.00" fill="#38bdf8">email_address</text>
<text text-anchor="start" x="1892.5" y="-820.22" font-family="Helvetica,sans-Serif" font-size="11.00" fill="#38bdf8">notes</text>
</g>
<!-- notification_delivery_attempt -->
<g id="node9" class="node">
<title>notification_delivery_attempt</title>
<polygon fill="#fefce8" stroke="transparent" points="2753.5,-375.02 2753.5,-393.02 2940.5,-393.02 2940.5,-375.02 2753.5,-375.02"/>
<polygon fill="none" stroke="#facc15" points="2753.5,-375.02 2753.5,-393.02 2940.5,-393.02 2940.5,-375.02 2753.5,-375.02"/>
<text text-anchor="start" x="2756.5" y="-382.22" font-family="Helvetica,sans-Serif" font-weight="bold" font-size="11.00">notification_delivery_attempt</text>
<text text-anchor="start" x="2755.5" y="-364.22" font-family="Helvetica,sans-Serif" font-size="11.00" fill="#38bdf8">attempt_status_code</text>
<text text-anchor="start" x="2755.5" y="-348.22" font-family="Helvetica,sans-Serif" font-size="11.00" fill="#4ade80">attempt_number</text>
<text text-anchor="start" x="2755.5" y="-332.22" font-family="Helvetica,sans-Serif" font-size="11.00" fill="#38bdf8">error_code</text>
<text text-anchor="start" x="2755.5" y="-316.22" font-family="Helvetica,sans-Serif" font-size="11.00" fill="#38bdf8">provider_code</text>
<text text-anchor="start" x="2755.5" y="-300.22" font-family="Helvetica,sans-Serif" font-size="11.00" fill="#a16207">attempted_at</text>
<text text-anchor="start" x="2755.5" y="-284.22" font-family="Helvetica,sans-Serif" font-size="11.00" fill="#38bdf8">error_text</text>
<text text-anchor="start" x="2755.5" y="-268.22" font-family="Helvetica,sans-Serif" font-size="11.00" fill="#38bdf8">provider_message_ref</text>
</g>
<!-- notification_device -->
<g id="node10" class="node">
<title>notification_device</title>
<polygon fill="#fefce8" stroke="transparent" points="1904.5,-761.02 1904.5,-779.02 2028.5,-779.02 2028.5,-761.02 1904.5,-761.02"/>
<polygon fill="none" stroke="#facc15" points="1904.5,-761.02 1904.5,-779.02 2028.5,-779.02 2028.5,-761.02 1904.5,-761.02"/>
<text text-anchor="start" x="1908" y="-768.22" font-family="Helvetica,sans-Serif" font-weight="bold" font-size="11.00">notification_device</text>
<text text-anchor="start" x="1906.5" y="-750.22" font-family="Helvetica,sans-Serif" font-size="11.00" fill="#38bdf8">device_platform_code</text>
<text text-anchor="start" x="1906.5" y="-734.22" font-family="Helvetica,sans-Serif" font-size="11.00" fill="#fb923c">is_active</text>
<text text-anchor="start" x="1906.5" y="-718.22" font-family="Helvetica,sans-Serif" font-size="11.00" fill="#38bdf8">device_label</text>
<text text-anchor="start" x="1906.5" y="-702.22" font-family="Helvetica,sans-Serif" font-size="11.00" fill="#a16207">last_seen_at</text>
<text text-anchor="start" x="1906.5" y="-686.22" font-family="Helvetica,sans-Serif" font-size="11.00" fill="#38bdf8">push_token</text>
</g>
<!-- notification_outbox -->
<g id="node11" class="node">
<title>notification_outbox</title>
<polygon fill="#fefce8" stroke="transparent" points="2367.5,-367.02 2367.5,-385.02 2528.5,-385.02 2528.5,-367.02 2367.5,-367.02"/>
<polygon fill="none" stroke="#facc15" points="2367.5,-367.02 2367.5,-385.02 2528.5,-385.02 2528.5,-367.02 2367.5,-367.02"/>
<text text-anchor="start" x="2389" y="-374.22" font-family="Helvetica,sans-Serif" font-weight="bold" font-size="11.00">notification_outbox</text>
<text text-anchor="start" x="2369.5" y="-356.22" font-family="Helvetica,sans-Serif" font-size="11.00" fill="#38bdf8">business_context_type_code</text>
<text text-anchor="start" x="2369.5" y="-340.22" font-family="Helvetica,sans-Serif" font-size="11.00" fill="#38bdf8">send_status_code</text>
<text text-anchor="start" x="2369.5" y="-324.22" font-family="Helvetica,sans-Serif" font-size="11.00" fill="#38bdf8">channel_code</text>
<text text-anchor="start" x="2369.5" y="-308.22" font-family="Helvetica,sans-Serif" font-size="11.00" fill="#a16207">scheduled_at</text>
<text text-anchor="start" x="2369.5" y="-292.22" font-family="Helvetica,sans-Serif" font-size="11.00" fill="#38bdf8">resolved_destination_text</text>
<text text-anchor="start" x="2369.5" y="-276.22" font-family="Helvetica,sans-Serif" font-size="11.00" fill="#a16207">sent_at</text>
</g>
<!-- notification_outbox&#45;&gt;notification_delivery_attempt -->
<g id="edge11" class="edge">
<title>notification_outbox&#45;&gt;notification_delivery_attempt</title>
<path fill="none" stroke="#f87171" stroke-width="3" d="M2528.36,-328.02C2590.95,-328.02 2678.4,-328.02 2745.62,-328.02"/>
<polygon fill="#f87171" stroke="#f87171" stroke-width="3" points="2745.89,-330.47 2752.89,-328.02 2745.89,-325.57 2745.89,-330.47"/>
<text text-anchor="middle" x="2640.5" y="-330.82" font-family="Helvetica,sans-Serif" font-size="9.00" fill="#f87171">[C] owns · notification_outbox_fk</text>
</g>
<!-- notification_template -->
<g id="node12" class="node">
<title>notification_template</title>
<polygon fill="#fefce8" stroke="transparent" points="1897.5,-375.02 1897.5,-393.02 2035.5,-393.02 2035.5,-375.02 1897.5,-375.02"/>
<polygon fill="none" stroke="#facc15" points="1897.5,-375.02 1897.5,-393.02 2035.5,-393.02 2035.5,-375.02 1897.5,-375.02"/>
<text text-anchor="start" x="1900.5" y="-382.22" font-family="Helvetica,sans-Serif" font-weight="bold" font-size="11.00">notification_template</text>
<text text-anchor="start" x="1899.5" y="-364.22" font-family="Helvetica,sans-Serif" font-size="11.00" fill="#38bdf8">channel_code</text>
<text text-anchor="start" x="1899.5" y="-348.22" font-family="Helvetica,sans-Serif" font-size="11.00" fill="#38bdf8">locale_code</text>
<text text-anchor="start" x="1899.5" y="-332.22" font-family="Helvetica,sans-Serif" font-size="11.00" fill="#38bdf8">template_code</text>
<text text-anchor="start" x="1899.5" y="-316.22" font-family="Helvetica,sans-Serif" font-size="11.00" fill="#fb923c">is_active</text>
<text text-anchor="start" x="1899.5" y="-300.22" font-family="Helvetica,sans-Serif" font-size="11.00" fill="#38bdf8">body_template</text>
<text text-anchor="start" x="1899.5" y="-284.22" font-family="Helvetica,sans-Serif" font-size="11.00" fill="#38bdf8">provider_template_ref</text>
<text text-anchor="start" x="1899.5" y="-268.22" font-family="Helvetica,sans-Serif" font-size="11.00" fill="#38bdf8">subject_template</text>
</g>
<!-- notification_template&#45;&gt;notification_outbox -->
<g id="edge9" class="edge">
<title>notification_template&#45;&gt;notification_outbox</title>
<path fill="none" stroke="#9ca3af" stroke-width="1.5" stroke-dasharray="5,2" d="M2035.62,-328.02C2120.7,-328.02 2266.39,-328.02 2359.47,-328.02"/>
<polygon fill="#9ca3af" stroke="#9ca3af" stroke-width="1.5" points="2359.64,-330.47 2366.64,-328.02 2359.64,-325.57 2359.64,-330.47"/>
<text text-anchor="middle" x="2243.5" y="-330.82" font-family="Helvetica,sans-Serif" font-size="9.00" fill="#9ca3af">[S] optional · notification_template_fk</text>
</g>
<!-- iam_profile -->
<g id="node13" class="node">
<title>iam_profile</title>
<polygon fill="#eef2ff" stroke="transparent" points="866,-727.02 866,-745.02 972,-745.02 972,-727.02 866,-727.02"/>
<polygon fill="none" stroke="#818cf8" points="866,-727.02 866,-745.02 972,-745.02 972,-727.02 866,-727.02"/>
<text text-anchor="start" x="885" y="-734.22" font-family="Helvetica,sans-Serif" font-weight="bold" font-size="11.00">iam_profile</text>
<text text-anchor="start" x="868" y="-716.22" font-family="Helvetica,sans-Serif" font-size="11.00" fill="#38bdf8">display_name</text>
<text text-anchor="start" x="868" y="-700.22" font-family="Helvetica,sans-Serif" font-size="11.00" fill="#fb923c">is_consumer</text>
<text text-anchor="start" x="868" y="-684.22" font-family="Helvetica,sans-Serif" font-size="11.00" fill="#fb923c">is_platform_user</text>
<text text-anchor="start" x="868" y="-668.22" font-family="Helvetica,sans-Serif" font-size="11.00" fill="#fb923c">is_restaurant_user</text>
<text text-anchor="start" x="868" y="-652.22" font-family="Helvetica,sans-Serif" font-size="11.00" fill="#38bdf8">email_address</text>
<text text-anchor="start" x="868" y="-636.22" font-family="Helvetica,sans-Serif" font-size="11.00" fill="#38bdf8">phone_e164</text>
<text text-anchor="start" x="868" y="-620.22" font-family="Helvetica,sans-Serif" font-size="11.00" fill="#a16207">last_seen_at</text>
</g>
<!-- iam_profile&#45;&gt;cms_page -->
<g id="edge17" class="edge">
<title>iam_profile&#45;&gt;cms_page</title>
<path fill="none" stroke="#9ca3af" stroke-width="1.5" stroke-dasharray="5,2" d="M972.24,-745.02C997.72,-774.74 1029.77,-809.4 1062,-837.02 1353.19,-1086.57 1440.52,-1138.47 1783,-1311.02 1823.29,-1331.32 1871.27,-1348.69 1907.92,-1360.66"/>
<polygon fill="#9ca3af" stroke="#9ca3af" stroke-width="1.5" points="1907.21,-1363 1914.62,-1362.83 1908.72,-1358.34 1907.21,-1363"/>
<text text-anchor="middle" x="1400" y="-1199.82" font-family="Helvetica,sans-Serif" font-size="9.00" fill="#9ca3af">[S] optional · created_by_profile_fk</text>
</g>
<!-- iam_profile&#45;&gt;cms_post -->
<g id="edge19" class="edge">
<title>iam_profile&#45;&gt;cms_post</title>
<path fill="none" stroke="#9ca3af" stroke-width="1.5" stroke-dasharray="5,2" d="M972.18,-726.74C997.77,-747.63 1029.93,-771.1 1062,-787.02 1209.5,-860.27 1672.66,-860 1775,-989.02 1786.89,-1004.01 1771.98,-1145.38 1783,-1161.02 1811.78,-1201.88 1867.02,-1220.52 1909.22,-1229.01"/>
<polygon fill="#9ca3af" stroke="#9ca3af" stroke-width="1.5" points="1908.8,-1231.42 1916.14,-1230.33 1909.72,-1226.61 1908.8,-1231.42"/>
<text text-anchor="middle" x="1400" y="-893.82" font-family="Helvetica,sans-Serif" font-size="9.00" fill="#9ca3af">[S] optional · author_profile_fk</text>
</g>
<!-- iam_profile&#45;&gt;marketing_partner_lead -->
<g id="edge4" class="edge">
<title>iam_profile&#45;&gt;marketing_partner_lead</title>
<path fill="none" stroke="#9ca3af" stroke-width="1.5" stroke-dasharray="5,2" d="M972.32,-706.12C998.73,-718.54 1031.55,-732.87 1062,-743.02 1370.47,-845.87 1558.72,-664.22 1775,-907.02 1796.42,-931.07 1764.57,-952.62 1783,-979.02 1806.85,-1013.18 1847.33,-1035.17 1884.12,-1048.95"/>
<polygon fill="#9ca3af" stroke="#9ca3af" stroke-width="1.5" points="1883.53,-1051.34 1890.94,-1051.43 1885.2,-1046.74 1883.53,-1051.34"/>
<text text-anchor="middle" x="1400" y="-781.82" font-family="Helvetica,sans-Serif" font-size="9.00" fill="#9ca3af">[S] optional · assigned_to_profile_fk</text>
</g>
<!-- iam_profile&#45;&gt;notification_device -->
<g id="edge12" class="edge">
<title>iam_profile&#45;&gt;notification_device</title>
<path fill="none" stroke="#f87171" stroke-width="3" d="M972.27,-692.54C998.95,-698.37 1032.03,-704.73 1062,-708.02 1372.51,-742.17 1746.5,-736.51 1897.44,-732.31"/>
<polygon fill="#f87171" stroke="#f87171" stroke-width="3" points="1897.53,-734.76 1904.45,-732.11 1897.39,-729.86 1897.53,-734.76"/>
<text text-anchor="middle" x="1400" y="-736.82" font-family="Helvetica,sans-Serif" font-size="9.00" fill="#f87171">[C] owns · iam_profile_fk</text>
</g>
<!-- iam_profile&#45;&gt;notification_outbox -->
<g id="edge10" class="edge">
<title>iam_profile&#45;&gt;notification_outbox</title>
<path fill="none" stroke="#9ca3af" stroke-width="1.5" stroke-dasharray="5,2" d="M972.08,-681.62C1149.16,-686.51 1720.12,-697.58 1775,-639.02 1789.97,-623.05 1767.36,-260.35 1783,-245.02 1899.5,-130.86 1988.41,-222.83 2150,-245.02 2222.28,-254.95 2301.77,-277.88 2360.24,-297.14"/>
<polygon fill="#9ca3af" stroke="#9ca3af" stroke-width="1.5" points="2359.49,-299.47 2366.9,-299.34 2361.03,-294.82 2359.49,-299.47"/>
<text text-anchor="middle" x="1673.5" y="-679.82" font-family="Helvetica,sans-Serif" font-size="9.00" fill="#9ca3af">[S] optional · recipient_profile_fk</text>
</g>
<!-- consumer_profile -->
<g id="node14" class="node">
<title>consumer_profile</title>
<polygon fill="#f5f3ff" stroke="transparent" points="1329,-597.02 1329,-615.02 1472,-615.02 1472,-597.02 1329,-597.02"/>
<polygon fill="none" stroke="#a78bfa" points="1329,-597.02 1329,-615.02 1472,-615.02 1472,-597.02 1329,-597.02"/>
<text text-anchor="start" x="1347.5" y="-604.22" font-family="Helvetica,sans-Serif" font-weight="bold" font-size="11.00">consumer_profile</text>
<text text-anchor="start" x="1331" y="-586.22" font-family="Helvetica,sans-Serif" font-size="11.00" fill="#38bdf8">preferred_language_code</text>
<text text-anchor="start" x="1331" y="-570.22" font-family="Helvetica,sans-Serif" font-size="11.00" fill="#38bdf8">first_name</text>
<text text-anchor="start" x="1331" y="-554.22" font-family="Helvetica,sans-Serif" font-size="11.00" fill="#38bdf8">last_name</text>
<text text-anchor="start" x="1331" y="-538.22" font-family="Helvetica,sans-Serif" font-size="11.00" fill="#38bdf8">marketing_source_code</text>
</g>
<!-- iam_profile&#45;&gt;consumer_profile -->
<g id="edge5" class="edge">
<title>iam_profile&#45;&gt;consumer_profile</title>
<path fill="none" stroke="#f87171" stroke-width="3" d="M972.07,-665.25C998.84,-657.87 1032.06,-649.04 1062,-642.02 1150.48,-621.28 1252.94,-601.15 1321.43,-588.25"/>
<polygon fill="#f87171" stroke="#f87171" stroke-width="3" points="1321.94,-590.65 1328.37,-586.95 1321.04,-585.83 1321.94,-590.65"/>
<text text-anchor="middle" x="1145" y="-644.82" font-family="Helvetica,sans-Serif" font-size="9.00" fill="#f87171">[C] owns · iam_profile_fk</text>
</g>
<!-- storage_object -->
<g id="node15" class="node">
<title>storage_object</title>
<polygon fill="#f0f9ff" stroke="transparent" points="1335,-461.02 1335,-479.02 1465,-479.02 1465,-461.02 1335,-461.02"/>
<polygon fill="none" stroke="#38bdf8" points="1335,-461.02 1335,-479.02 1465,-479.02 1465,-461.02 1335,-461.02"/>
<text text-anchor="start" x="1354.5" y="-468.22" font-family="Helvetica,sans-Serif" font-weight="bold" font-size="11.00">storage_object</text>
<text text-anchor="start" x="1337" y="-450.22" font-family="Helvetica,sans-Serif" font-size="11.00" fill="#38bdf8">bucket_name</text>
<text text-anchor="start" x="1337" y="-434.22" font-family="Helvetica,sans-Serif" font-size="11.00" fill="#38bdf8">mime_type</text>
<text text-anchor="start" x="1337" y="-418.22" font-family="Helvetica,sans-Serif" font-size="11.00" fill="#38bdf8">checksum_sha256_hex</text>
<text text-anchor="start" x="1337" y="-402.22" font-family="Helvetica,sans-Serif" font-size="11.00" fill="#38bdf8">object_path</text>
<text text-anchor="start" x="1337" y="-386.22" font-family="Helvetica,sans-Serif" font-size="11.00" fill="#38bdf8">original_filename</text>
<text text-anchor="start" x="1337" y="-370.22" font-family="Helvetica,sans-Serif" font-size="11.00" fill="#4ade80">size_bytes</text>
</g>
<!-- iam_profile&#45;&gt;storage_object -->
<g id="edge8" class="edge">
<title>iam_profile&#45;&gt;storage_object</title>
<path fill="none" stroke="#9ca3af" stroke-width="1.5" stroke-dasharray="5,2" d="M972.29,-643.53C998.7,-625.69 1031.52,-604.37 1062,-587.02 1151.53,-536.05 1259.05,-485.09 1328.17,-453.57"/>
<polygon fill="#9ca3af" stroke="#9ca3af" stroke-width="1.5" points="1329.38,-455.71 1334.74,-450.58 1327.35,-451.25 1329.38,-455.71"/>
<text text-anchor="middle" x="1145" y="-589.82" font-family="Helvetica,sans-Serif" font-size="9.00" fill="#9ca3af">[S] optional · uploaded_by_profile_fk</text>
</g>
<!-- restaurant_restaurant -->
<g id="node17" class="node">
<title>restaurant_restaurant</title>
<polygon fill="#fff7ed" stroke="transparent" points="1318,-293.02 1318,-311.02 1483,-311.02 1483,-293.02 1318,-293.02"/>
<polygon fill="none" stroke="#fb923c" points="1318,-293.02 1318,-311.02 1483,-311.02 1483,-293.02 1318,-293.02"/>
<text text-anchor="start" x="1332.5" y="-300.22" font-family="Helvetica,sans-Serif" font-weight="bold" font-size="11.00">restaurant_restaurant</text>
<text text-anchor="start" x="1320" y="-282.22" font-family="Helvetica,sans-Serif" font-size="11.00" fill="#38bdf8">restaurant_status_code</text>
<text text-anchor="start" x="1320" y="-266.22" font-family="Helvetica,sans-Serif" font-size="11.00" fill="#38bdf8">legal_entity_name</text>
<text text-anchor="start" x="1320" y="-250.22" font-family="Helvetica,sans-Serif" font-size="11.00" fill="#38bdf8">restaurant_name</text>
<text text-anchor="start" x="1320" y="-234.22" font-family="Helvetica,sans-Serif" font-size="11.00" fill="#38bdf8">restaurant_slug</text>
<text text-anchor="start" x="1320" y="-218.22" font-family="Helvetica,sans-Serif" font-size="11.00" fill="#38bdf8">primary_contact_email</text>
<text text-anchor="start" x="1320" y="-202.22" font-family="Helvetica,sans-Serif" font-size="11.00" fill="#38bdf8">primary_contact_phone_e164</text>
<text text-anchor="start" x="1320" y="-186.22" font-family="Helvetica,sans-Serif" font-size="11.00" fill="#38bdf8">pickup_instructions</text>
</g>
<!-- iam_profile&#45;&gt;restaurant_restaurant -->
<g id="edge7" class="edge">
<title>iam_profile&#45;&gt;restaurant_restaurant</title>
<path fill="none" stroke="#9ca3af" stroke-width="1.5" stroke-dasharray="5,2" d="M959.76,-614.84C986.1,-574.34 1022.9,-522.48 1062,-482.02 1129.83,-411.84 1155.87,-403.76 1236,-348.02 1259.88,-331.42 1286.38,-314.3 1310.95,-298.95"/>
<polygon fill="#9ca3af" stroke="#9ca3af" stroke-width="1.5" points="1312.51,-300.86 1317.16,-295.08 1309.92,-296.7 1312.51,-300.86"/>
<text text-anchor="middle" x="1145" y="-484.82" font-family="Helvetica,sans-Serif" font-size="9.00" fill="#9ca3af">[S] optional · owner_profile_fk</text>
</g>
<!-- iam_profile&#45;&gt;support_ticket -->
<g id="edge13" class="edge">
<title>iam_profile&#45;&gt;support_ticket</title>
<path fill="none" stroke="#9ca3af" stroke-width="1.5" stroke-dasharray="5,2" d="M934.96,-614.76C966.47,-495.03 1052.45,-244.28 1236,-154.02 1347.1,-99.39 1711.7,-93.16 1879.54,-93.31"/>
<polygon fill="#9ca3af" stroke="#9ca3af" stroke-width="1.5" points="1879.89,-95.76 1886.89,-93.32 1879.9,-90.86 1879.89,-95.76"/>
<text text-anchor="middle" x="1400" y="-156.82" font-family="Helvetica,sans-Serif" font-size="9.00" fill="#9ca3af">[S] optional · requester_profile_fk</text>
</g>
<!-- iam_profile&#45;&gt;support_ticket -->
<g id="edge16" class="edge">
<title>iam_profile&#45;&gt;support_ticket</title>
<path fill="none" stroke="#9ca3af" stroke-width="1.5" stroke-dasharray="5,2" d="M919.37,-614.89C921.81,-505.08 942.38,-282.08 1062,-149.02 1270.24,82.6 1697.61,-11.46 1879.97,-65.75"/>
<polygon fill="#9ca3af" stroke="#9ca3af" stroke-width="1.5" points="1879.48,-68.16 1886.89,-67.82 1880.89,-63.46 1879.48,-68.16"/>
<text text-anchor="middle" x="1400" y="-36.82" font-family="Helvetica,sans-Serif" font-size="9.00" fill="#9ca3af">[S] optional · assigned_to_profile_fk</text>
</g>
<!-- consumer_profile&#45;&gt;marketing_waitlist_lead -->
<g id="edge22" class="edge">
<title>consumer_profile&#45;&gt;marketing_waitlist_lead</title>
<path fill="none" stroke="#9ca3af" stroke-width="1.5" stroke-dasharray="5,2" d="M1471.64,-578.83C1574.33,-586.53 1754.88,-603.02 1775,-625.02 1787.91,-639.14 1772.56,-780.99 1783,-797.02 1805.83,-832.07 1846.46,-854.15 1883.6,-867.77"/>
<polygon fill="#9ca3af" stroke="#9ca3af" stroke-width="1.5" points="1883.07,-870.18 1890.48,-870.21 1884.71,-865.56 1883.07,-870.18"/>
<text text-anchor="middle" x="1673.5" y="-627.82" font-family="Helvetica,sans-Serif" font-size="9.00" fill="#9ca3af">[S] optional · converted_consumer_profile_fk</text>
</g>
<!-- storage_object&#45;&gt;cms_seo_metadata -->
<g id="edge21" class="edge">
<title>storage_object&#45;&gt;cms_seo_metadata</title>
<path fill="none" stroke="#9ca3af" stroke-width="1.5" stroke-dasharray="5,2" d="M1465.12,-433.56C1541.18,-448.58 1670.8,-478.43 1775,-524.02 1778.84,-525.7 1779.23,-527.18 1783,-529.02 1819.8,-547.04 1862.75,-563.04 1897.73,-574.88"/>
<polygon fill="#9ca3af" stroke="#9ca3af" stroke-width="1.5" points="1897.2,-577.28 1904.61,-577.19 1898.75,-572.64 1897.2,-577.28"/>
<text text-anchor="middle" x="1673.5" y="-526.82" font-family="Helvetica,sans-Serif" font-size="9.00" fill="#9ca3af">[S] optional · og_image_storage_object_fk</text>
</g>
<!-- geo_city -->
<g id="node16" class="node">
<title>geo_city</title>
<polygon fill="#f0fdfa" stroke="transparent" points="259.5,-1129.02 259.5,-1147.02 351.5,-1147.02 351.5,-1129.02 259.5,-1129.02"/>
<polygon fill="none" stroke="#2dd4bf" points="259.5,-1129.02 259.5,-1147.02 351.5,-1147.02 351.5,-1129.02 259.5,-1129.02"/>
<text text-anchor="start" x="279.5" y="-1136.22" font-family="Helvetica,sans-Serif" font-weight="bold" font-size="11.00">geo_city</text>
<text text-anchor="start" x="261.5" y="-1118.22" font-family="Helvetica,sans-Serif" font-size="11.00" fill="#38bdf8">city_code</text>
<text text-anchor="start" x="261.5" y="-1102.22" font-family="Helvetica,sans-Serif" font-size="11.00" fill="#38bdf8">city_name</text>
<text text-anchor="start" x="261.5" y="-1086.22" font-family="Helvetica,sans-Serif" font-size="11.00" fill="#38bdf8">country_code</text>
<text text-anchor="start" x="261.5" y="-1070.22" font-family="Helvetica,sans-Serif" font-size="11.00" fill="#38bdf8">currency_code</text>
<text text-anchor="start" x="261.5" y="-1054.22" font-family="Helvetica,sans-Serif" font-size="11.00" fill="#38bdf8">state_name</text>
<text text-anchor="start" x="261.5" y="-1038.22" font-family="Helvetica,sans-Serif" font-size="11.00" fill="#38bdf8">timezone_name</text>
<text text-anchor="start" x="261.5" y="-1022.22" font-family="Helvetica,sans-Serif" font-size="11.00" fill="#fb923c">is_active</text>
</g>
<!-- geo_city&#45;&gt;cms_city_page -->
<g id="edge18" class="edge">
<title>geo_city&#45;&gt;cms_city_page</title>
<path fill="none" stroke="#f87171" stroke-width="3" d="M351.73,-1093.75C585.83,-1154.42 1658.63,-1432.49 1911.84,-1498.11"/>
<polygon fill="#f87171" stroke="#f87171" stroke-width="3" points="1911.35,-1500.52 1918.74,-1499.9 1912.57,-1495.77 1911.35,-1500.52"/>
<text text-anchor="middle" x="1145" y="-1321.82" font-family="Helvetica,sans-Serif" font-size="9.00" fill="#f87171">[C] owns · geo_city_fk</text>
</g>
<!-- geo_city&#45;&gt;marketing_partner_lead -->
<g id="edge3" class="edge">
<title>geo_city&#45;&gt;marketing_partner_lead</title>
<path fill="none" stroke="#9ca3af" stroke-width="1.5" stroke-dasharray="5,2" d="M351.58,-1086.89C417.01,-1093.68 542.15,-1105.66 649,-1110.02 1149.03,-1130.43 1277.23,-1161.72 1775,-1110.02 1811.09,-1106.28 1850.41,-1098.64 1883.91,-1091.03"/>
<polygon fill="#9ca3af" stroke="#9ca3af" stroke-width="1.5" points="1884.7,-1093.36 1890.97,-1089.41 1883.6,-1088.59 1884.7,-1093.36"/>
<text text-anchor="middle" x="1145" y="-1139.82" font-family="Helvetica,sans-Serif" font-size="9.00" fill="#9ca3af">[S] optional · geo_city_fk</text>
</g>
<!-- geo_city&#45;&gt;marketing_waitlist_lead -->
<g id="edge2" class="edge">
<title>geo_city&#45;&gt;marketing_waitlist_lead</title>
<path fill="none" stroke="#9ca3af" stroke-width="1.5" stroke-dasharray="5,2" d="M351.6,-1083.5C547.55,-1089.57 1325.78,-1109.91 1564,-1059.02 1627.53,-1045.45 1786.11,-973.33 1883.89,-927.19"/>
<polygon fill="#9ca3af" stroke="#9ca3af" stroke-width="1.5" points="1884.95,-929.4 1890.24,-924.19 1882.86,-924.97 1884.95,-929.4"/>
<text text-anchor="middle" x="1145" y="-1093.82" font-family="Helvetica,sans-Serif" font-size="9.00" fill="#9ca3af">[S] optional · geo_city_fk</text>
</g>
<!-- geo_city&#45;&gt;iam_profile -->
<g id="edge1" class="edge">
<title>geo_city&#45;&gt;iam_profile</title>
<path fill="none" stroke="#9ca3af" stroke-width="1.5" stroke-dasharray="5,2" d="M351.96,-1052.14C461.25,-980.29 738.6,-797.96 859.81,-718.28"/>
<polygon fill="#9ca3af" stroke="#9ca3af" stroke-width="1.5" points="861.31,-720.22 865.81,-714.33 858.62,-716.13 861.31,-720.22"/>
<text text-anchor="middle" x="712.5" y="-852.82" font-family="Helvetica,sans-Serif" font-size="9.00" fill="#9ca3af">[S] optional · default_city_fk</text>
</g>
<!-- geo_city&#45;&gt;restaurant_restaurant -->
<g id="edge6" class="edge">
<title>geo_city&#45;&gt;restaurant_restaurant</title>
<path fill="none" stroke="#818cf8" stroke-width="2" d="M351.62,-1018.86C457.88,-875.08 739.34,-522.14 1062,-345.02 1140.42,-301.97 1239.64,-275.75 1310.06,-261.21"/>
<polygon fill="#818cf8" stroke="#818cf8" stroke-width="2" points="1310.85,-263.55 1317.22,-259.75 1309.87,-258.75 1310.85,-263.55"/>
<text text-anchor="middle" x="919" y="-541.82" font-family="Helvetica,sans-Serif" font-size="9.00" fill="#818cf8">[R] has · geo_city_fk</text>
</g>
<!-- restaurant_restaurant&#45;&gt;cms_restaurant_feature -->
<g id="edge20" class="edge">
<title>restaurant_restaurant&#45;&gt;cms_restaurant_feature</title>
<path fill="none" stroke="#f87171" stroke-width="3" d="M1482.59,-246.2C1568.78,-251.1 1702.09,-273 1775,-357.02 1790.9,-375.35 1767.32,-392.51 1783,-411.02 1807.81,-440.33 1847.3,-455.2 1883.21,-462.7"/>
<polygon fill="#f87171" stroke="#f87171" stroke-width="3" points="1883,-465.16 1890.34,-464.11 1883.94,-460.35 1883,-465.16"/>
<text text-anchor="middle" x="1673.5" y="-359.82" font-family="Helvetica,sans-Serif" font-size="9.00" fill="#f87171">[C] owns · restaurant_fk</text>
</g>
<!-- restaurant_restaurant&#45;&gt;marketing_partner_lead -->
<g id="edge23" class="edge">
<title>restaurant_restaurant&#45;&gt;marketing_partner_lead</title>
<path fill="none" stroke="#9ca3af" stroke-width="1.5" stroke-dasharray="5,2" d="M1482.87,-282.58C1511.9,-299 1542.63,-320.87 1564,-348.02 1570.95,-356.86 1564.04,-364.08 1572,-372.02 1639.28,-439.11 1718.76,-362.44 1775,-439.02 1792.76,-463.21 1767.02,-953.63 1783,-979.02 1805.45,-1014.71 1846.51,-1036.89 1884,-1050.4"/>
<polygon fill="#9ca3af" stroke="#9ca3af" stroke-width="1.5" points="1883.54,-1052.84 1890.95,-1052.83 1885.15,-1048.21 1883.54,-1052.84"/>
<text text-anchor="middle" x="1673.5" y="-441.82" font-family="Helvetica,sans-Serif" font-size="9.00" fill="#9ca3af">[S] optional · converted_restaurant_fk</text>
</g>
<!-- restaurant_restaurant&#45;&gt;support_ticket -->
<g id="edge14" class="edge">
<title>restaurant_restaurant&#45;&gt;support_ticket</title>
<path fill="none" stroke="#9ca3af" stroke-width="1.5" stroke-dasharray="5,2" d="M1482.75,-231.04C1559.03,-216.32 1675.69,-191.9 1775,-163.02 1809.69,-152.94 1847.2,-139.84 1879.69,-127.77"/>
<polygon fill="#9ca3af" stroke="#9ca3af" stroke-width="1.5" points="1880.84,-129.96 1886.54,-125.21 1879.13,-125.36 1880.84,-129.96"/>
<text text-anchor="middle" x="1673.5" y="-214.82" font-family="Helvetica,sans-Serif" font-size="9.00" fill="#9ca3af">[S] optional · restaurant_fk</text>
</g>
<!-- support_ticket&#45;&gt;marketing_partner_lead -->
<g id="edge24" class="edge">
<title>support_ticket&#45;&gt;marketing_partner_lead</title>
<path fill="none" stroke="#9ca3af" stroke-width="1.5" stroke-dasharray="5,2" d="M1893.45,-143.06C1856.93,-170.23 1814.02,-206.47 1783,-246.02 1684.56,-371.54 1662.18,-413.55 1626.5,-569.02 1582.87,-759.13 1651.24,-835.21 1783,-979.02 1810.02,-1008.52 1848.73,-1029.67 1883.64,-1044.1"/>
<polygon fill="#9ca3af" stroke="#9ca3af" stroke-width="1.5" points="1883.16,-1046.55 1890.57,-1046.9 1884.99,-1042.01 1883.16,-1046.55"/>
<text text-anchor="middle" x="1673.5" y="-571.82" font-family="Helvetica,sans-Serif" font-size="9.00" fill="#9ca3af">[S] optional · converted_support_ticket_fk</text>
</g>
<!-- legend_marketing_cms_context -->
<g id="node19" class="node">
<title>legend_marketing_cms_context</title>
<text text-anchor="start" x="283.5" y="-1282.22" font-family="Helvetica,sans-Serif" font-weight="bold" font-size="11.00">Legend</text>
<text text-anchor="start" x="5.5" y="-1261.22" font-family="Helvetica,sans-Serif" font-size="11.00">[C] Cascade — red solid 3pt</text>
<text text-anchor="start" x="5.5" y="-1241.22" font-family="Helvetica,sans-Serif" font-size="11.00">[R] Restrict — indigo solid 2pt</text>
<text text-anchor="start" x="5.5" y="-1221.22" font-family="Helvetica,sans-Serif" font-size="11.00">[S] Set Null — gray dashed 1.5pt</text>
<text text-anchor="start" x="5.5" y="-1201.22" font-family="Helvetica,sans-Serif" font-size="11.00">Text colors → violet uuid, blue string, green integer, orange boolean, brown datetime, gold money, cyan json</text>
<polygon fill="none" stroke="black" points="0,-1193.02 0,-1295.02 611,-1295.02 611,-1193.02 0,-1193.02"/>
</g>
</g>
</svg>
