<?xml version="1.0" encoding="UTF-8" standalone="no"?>
<!DOCTYPE svg PUBLIC "-//W3C//DTD SVG 1.1//EN"
 "http://www.w3.org/Graphics/SVG/1.1/DTD/svg11.dtd">
<!-- Generated by graphviz version 2.42.4 (0)
 -->
<!-- Title: G Pages: 1 -->
<svg width="2790pt" height="1800pt"
 viewBox="0.00 0.00 2790.20 1800.20" xmlns="http://www.w3.org/2000/svg" xmlns:xlink="http://www.w3.org/1999/xlink">
<g id="graph0" class="graph" transform="scale(1 1) rotate(0) translate(21.6 1778.6)">
<title>G</title>
<polygon fill="white" stroke="transparent" points="-21.6,21.6 -21.6,-1778.6 2768.6,-1778.6 2768.6,21.6 -21.6,21.6"/>
<text text-anchor="middle" x="133" y="-1737" font-family="Helvetica,sans-Serif" font-size="20.00">Support Incident Context</text>
<g id="clust1" class="cluster">
<title>cluster_main_1</title>
<path fill="#fff1f2" stroke="#fb7185" stroke-width="1.5" d="M1948,-966C1948,-966 2727,-966 2727,-966 2733,-966 2739,-972 2739,-978 2739,-978 2739,-1200 2739,-1200 2739,-1206 2733,-1212 2727,-1212 2727,-1212 1948,-1212 1948,-1212 1942,-1212 1936,-1206 1936,-1200 1936,-1200 1936,-978 1936,-978 1936,-972 1942,-966 1948,-966"/>
<text text-anchor="middle" x="2048" y="-1192" font-family="Helvetica,sans-Serif" font-size="20.00">SUPPORT / INCIDENT</text>
</g>
<g id="clust2" class="cluster">
<title>cluster_ext_1</title>
<path fill="white" stroke="#818cf8" stroke-dasharray="5,2" d="M182.5,-1228C182.5,-1228 428.5,-1228 428.5,-1228 434.5,-1228 440.5,-1234 440.5,-1240 440.5,-1240 440.5,-1392 440.5,-1392 440.5,-1398 434.5,-1404 428.5,-1404 428.5,-1404 182.5,-1404 182.5,-1404 176.5,-1404 170.5,-1398 170.5,-1392 170.5,-1392 170.5,-1240 170.5,-1240 170.5,-1234 176.5,-1228 182.5,-1228"/>
<text text-anchor="middle" x="305.5" y="-1384" font-family="Helvetica,sans-Serif" font-size="20.00">External refs · AUTH / IAM</text>
</g>
<g id="clust3" class="cluster">
<title>cluster_ext_2</title>
<path fill="white" stroke="#facc15" stroke-dasharray="5,2" d="M1349.5,-1177C1349.5,-1177 1666.5,-1177 1666.5,-1177 1672.5,-1177 1678.5,-1183 1678.5,-1189 1678.5,-1189 1678.5,-1357 1678.5,-1357 1678.5,-1363 1672.5,-1369 1666.5,-1369 1666.5,-1369 1349.5,-1369 1349.5,-1369 1343.5,-1369 1337.5,-1363 1337.5,-1357 1337.5,-1357 1337.5,-1189 1337.5,-1189 1337.5,-1183 1343.5,-1177 1349.5,-1177"/>
<text text-anchor="middle" x="1508" y="-1349" font-family="Helvetica,sans-Serif" font-size="20.00">External refs · MARKETING / CMS</text>
</g>
<g id="clust4" class="cluster">
<title>cluster_ext_3</title>
<path fill="white" stroke="#e879f9" stroke-dasharray="5,2" d="M1349.5,-977C1349.5,-977 1667.5,-977 1667.5,-977 1673.5,-977 1679.5,-983 1679.5,-989 1679.5,-989 1679.5,-1157 1679.5,-1157 1679.5,-1163 1673.5,-1169 1667.5,-1169 1667.5,-1169 1349.5,-1169 1349.5,-1169 1343.5,-1169 1337.5,-1163 1337.5,-1157 1337.5,-1157 1337.5,-989 1337.5,-989 1337.5,-983 1343.5,-977 1349.5,-977"/>
<text text-anchor="middle" x="1508.5" y="-1149" font-family="Helvetica,sans-Serif" font-size="20.00">External refs · ORDER / PAYMENT</text>
</g>
<g id="clust5" class="cluster">
<title>cluster_ext_4</title>
<path fill="white" stroke="#fb923c" stroke-dasharray="5,2" d="M827,-1296C827,-1296 1094,-1296 1094,-1296 1100,-1296 1106,-1302 1106,-1308 1106,-1308 1106,-1460 1106,-1460 1106,-1466 1100,-1472 1094,-1472 1094,-1472 827,-1472 827,-1472 821,-1472 815,-1466 815,-1460 815,-1460 815,-1308 815,-1308 815,-1302 821,-1296 827,-1296"/>
<text text-anchor="middle" x="960.5" y="-1452" font-family="Helvetica,sans-Serif" font-size="20.00">External refs · RESTAURANT</text>
</g>
<g id="clust6" class="cluster">
<title>cluster_ext_5</title>
<path fill="white" stroke="#9ca3af" stroke-dasharray="5,2" d="M1369,-47C1369,-47 1647,-47 1647,-47 1653,-47 1659,-53 1659,-59 1659,-59 1659,-801 1659,-801 1659,-807 1653,-813 1647,-813 1647,-813 1369,-813 1369,-813 1363,-813 1357,-807 1357,-801 1357,-801 1357,-59 1357,-59 1357,-53 1363,-47 1369,-47"/>
<text text-anchor="middle" x="1508" y="-793" font-family="Helvetica,sans-Serif" font-size="20.00">External refs · SHARED / OPS</text>
</g>
<!-- incident_event -->
<g id="node1" class="node">
<title>incident_event</title>
<polygon fill="#fff1f2" stroke="transparent" points="2633,-1022 2633,-1040 2731,-1040 2731,-1022 2633,-1022"/>
<polygon fill="none" stroke="#fb7185" points="2633,-1022 2633,-1040 2731,-1040 2731,-1022 2633,-1022"/>
<text text-anchor="start" x="2636.5" y="-1029.2" font-family="Helvetica,sans-Serif" font-weight="bold" font-size="11.00">incident_event</text>
<text text-anchor="start" x="2635" y="-1011.2" font-family="Helvetica,sans-Serif" font-size="11.00" fill="#38bdf8">event_type_code</text>
<text text-anchor="start" x="2635" y="-995.2" font-family="Helvetica,sans-Serif" font-size="11.00" fill="#38bdf8">comment_text</text>
<text text-anchor="start" x="2635" y="-979.2" font-family="Helvetica,sans-Serif" font-size="11.00" fill="#a16207">recorded_at</text>
</g>
<!-- incident_incident -->
<g id="node2" class="node">
<title>incident_incident</title>
<polygon fill="#fff1f2" stroke="transparent" points="2335.5,-1156 2335.5,-1174 2446.5,-1174 2446.5,-1156 2335.5,-1156"/>
<polygon fill="none" stroke="#fb7185" points="2335.5,-1156 2335.5,-1174 2446.5,-1174 2446.5,-1156 2335.5,-1156"/>
<text text-anchor="start" x="2338.5" y="-1163.2" font-family="Helvetica,sans-Serif" font-weight="bold" font-size="11.00">incident_incident</text>
<text text-anchor="start" x="2337.5" y="-1145.2" font-family="Helvetica,sans-Serif" font-size="11.00" fill="#38bdf8">description_text</text>
<text text-anchor="start" x="2337.5" y="-1129.2" font-family="Helvetica,sans-Serif" font-size="11.00" fill="#a16207">occurred_at</text>
<text text-anchor="start" x="2337.5" y="-1113.2" font-family="Helvetica,sans-Serif" font-size="11.00" fill="#a16207">resolved_at</text>
<text text-anchor="start" x="2337.5" y="-1097.2" font-family="Helvetica,sans-Serif" font-size="11.00" fill="#38bdf8">title_text</text>
</g>
<!-- incident_incident&#45;&gt;incident_event -->
<g id="edge24" class="edge">
<title>incident_incident&#45;&gt;incident_event</title>
<path fill="none" stroke="#f87171" stroke-width="3" d="M2446.29,-1109.15C2497.85,-1086.71 2574.65,-1053.29 2626.21,-1030.85"/>
<polygon fill="#f87171" stroke="#f87171" stroke-width="3" points="2627.24,-1033.07 2632.68,-1028.03 2625.29,-1028.58 2627.24,-1033.07"/>
<text text-anchor="middle" x="2545.5" y="-1086.8" font-family="Helvetica,sans-Serif" font-size="9.00" fill="#f87171">[C] owns · incident_fk</text>
</g>
<!-- support_ticket -->
<g id="node3" class="node">
<title>support_ticket</title>
<polygon fill="#fff1f2" stroke="transparent" points="1944.5,-1156 1944.5,-1174 2103.5,-1174 2103.5,-1156 1944.5,-1156"/>
<polygon fill="none" stroke="#fb7185" points="1944.5,-1156 1944.5,-1174 2103.5,-1174 2103.5,-1156 1944.5,-1156"/>
<text text-anchor="start" x="1980" y="-1163.2" font-family="Helvetica,sans-Serif" font-weight="bold" font-size="11.00">support_ticket</text>
<text text-anchor="start" x="1946.5" y="-1145.2" font-family="Helvetica,sans-Serif" font-size="11.00" fill="#a16207">sla_due_at</text>
<text text-anchor="start" x="1946.5" y="-1129.2" font-family="Helvetica,sans-Serif" font-size="11.00" fill="#38bdf8">description_text</text>
<text text-anchor="start" x="1946.5" y="-1113.2" font-family="Helvetica,sans-Serif" font-size="11.00" fill="#38bdf8">requester_idempotency_key</text>
<text text-anchor="start" x="1946.5" y="-1097.2" font-family="Helvetica,sans-Serif" font-size="11.00" fill="#a16207">resolved_at</text>
<text text-anchor="start" x="1946.5" y="-1081.2" font-family="Helvetica,sans-Serif" font-size="11.00" fill="#38bdf8">subject_text</text>
</g>
<!-- support_ticket&#45;&gt;incident_incident -->
<g id="edge18" class="edge">
<title>support_ticket&#45;&gt;incident_incident</title>
<path fill="none" stroke="#9ca3af" stroke-width="1.5" stroke-dasharray="5,2" d="M2103.25,-1126.73C2170.41,-1128.2 2265.64,-1130.29 2327.49,-1131.64"/>
<polygon fill="#9ca3af" stroke="#9ca3af" stroke-width="1.5" points="2327.82,-1134.1 2334.87,-1131.8 2327.92,-1129.2 2327.82,-1134.1"/>
<text text-anchor="middle" x="2215" y="-1132.8" font-family="Helvetica,sans-Serif" font-size="9.00" fill="#9ca3af">[S] optional · support_ticket_fk</text>
</g>
<!-- support_ticket_event -->
<g id="node4" class="node">
<title>support_ticket_event</title>
<polygon fill="#fff1f2" stroke="transparent" points="2323.5,-1038 2323.5,-1056 2458.5,-1056 2458.5,-1038 2323.5,-1038"/>
<polygon fill="none" stroke="#fb7185" points="2323.5,-1038 2323.5,-1056 2458.5,-1056 2458.5,-1038 2323.5,-1038"/>
<text text-anchor="start" x="2326.5" y="-1045.2" font-family="Helvetica,sans-Serif" font-weight="bold" font-size="11.00">support_ticket_event</text>
<text text-anchor="start" x="2325.5" y="-1027.2" font-family="Helvetica,sans-Serif" font-size="11.00" fill="#38bdf8">event_type_code</text>
<text text-anchor="start" x="2325.5" y="-1011.2" font-family="Helvetica,sans-Serif" font-size="11.00" fill="#fb923c">is_internal_note</text>
<text text-anchor="start" x="2325.5" y="-995.2" font-family="Helvetica,sans-Serif" font-size="11.00" fill="#38bdf8">comment_text</text>
<text text-anchor="start" x="2325.5" y="-979.2" font-family="Helvetica,sans-Serif" font-size="11.00" fill="#a16207">recorded_at</text>
</g>
<!-- support_ticket&#45;&gt;support_ticket_event -->
<g id="edge12" class="edge">
<title>support_ticket&#45;&gt;support_ticket_event</title>
<path fill="none" stroke="#f87171" stroke-width="3" d="M2103.25,-1101.27C2166.31,-1082.26 2254.12,-1055.8 2315.8,-1037.21"/>
<polygon fill="#f87171" stroke="#f87171" stroke-width="3" points="2316.82,-1039.46 2322.82,-1035.1 2315.41,-1034.77 2316.82,-1039.46"/>
<text text-anchor="middle" x="2215" y="-1088.8" font-family="Helvetica,sans-Serif" font-size="9.00" fill="#f87171">[C] owns · support_ticket_fk</text>
</g>
<!-- marketing_partner_lead -->
<g id="node6" class="node">
<title>marketing_partner_lead</title>
<polygon fill="#fefce8" stroke="transparent" points="1433,-1313 1433,-1331 1584,-1331 1584,-1313 1433,-1313"/>
<polygon fill="none" stroke="#facc15" points="1433,-1313 1433,-1331 1584,-1331 1584,-1313 1433,-1313"/>
<text text-anchor="start" x="1436" y="-1320.2" font-family="Helvetica,sans-Serif" font-weight="bold" font-size="11.00">marketing_partner_lead</text>
<text text-anchor="start" x="1435" y="-1302.2" font-family="Helvetica,sans-Serif" font-size="11.00" fill="#38bdf8">qualification_status_code</text>
<text text-anchor="start" x="1435" y="-1286.2" font-family="Helvetica,sans-Serif" font-size="11.00" fill="#38bdf8">contact_name</text>
<text text-anchor="start" x="1435" y="-1270.2" font-family="Helvetica,sans-Serif" font-size="11.00" fill="#38bdf8">restaurant_name</text>
<text text-anchor="start" x="1435" y="-1254.2" font-family="Helvetica,sans-Serif" font-size="11.00" fill="#38bdf8">source_campaign_code</text>
<text text-anchor="start" x="1435" y="-1238.2" font-family="Helvetica,sans-Serif" font-size="11.00" fill="#38bdf8">source_page_code</text>
<text text-anchor="start" x="1435" y="-1222.2" font-family="Helvetica,sans-Serif" font-size="11.00" fill="#fb923c">consent_captured_flag</text>
<text text-anchor="start" x="1435" y="-1206.2" font-family="Helvetica,sans-Serif" font-size="11.00" fill="#38bdf8">city_text</text>
<text text-anchor="start" x="1435" y="-1190.2" font-family="Helvetica,sans-Serif" font-size="11.00" fill="#38bdf8">cuisine_text</text>
</g>
<!-- support_ticket&#45;&gt;marketing_partner_lead -->
<g id="edge29" class="edge">
<title>support_ticket&#45;&gt;marketing_partner_lead</title>
<path fill="none" stroke="#9ca3af" stroke-width="1.5" stroke-dasharray="5,2" d="M1943.93,-1142.28C1880.34,-1156.58 1788.59,-1177.88 1709,-1199 1669.96,-1209.36 1626.97,-1221.89 1590.88,-1232.74"/>
<polygon fill="#9ca3af" stroke="#9ca3af" stroke-width="1.5" points="1589.75,-1230.52 1583.75,-1234.89 1591.16,-1235.21 1589.75,-1230.52"/>
<text text-anchor="middle" x="1805.5" y="-1201.8" font-family="Helvetica,sans-Serif" font-size="9.00" fill="#9ca3af">[S] optional · converted_support_ticket_fk</text>
</g>
<!-- iam_profile -->
<g id="node5" class="node">
<title>iam_profile</title>
<polygon fill="#eef2ff" stroke="transparent" points="252.5,-1348 252.5,-1366 358.5,-1366 358.5,-1348 252.5,-1348"/>
<polygon fill="none" stroke="#818cf8" points="252.5,-1348 252.5,-1366 358.5,-1366 358.5,-1348 252.5,-1348"/>
<text text-anchor="start" x="271.5" y="-1355.2" font-family="Helvetica,sans-Serif" font-weight="bold" font-size="11.00">iam_profile</text>
<text text-anchor="start" x="254.5" y="-1337.2" font-family="Helvetica,sans-Serif" font-size="11.00" fill="#38bdf8">display_name</text>
<text text-anchor="start" x="254.5" y="-1321.2" font-family="Helvetica,sans-Serif" font-size="11.00" fill="#fb923c">is_consumer</text>
<text text-anchor="start" x="254.5" y="-1305.2" font-family="Helvetica,sans-Serif" font-size="11.00" fill="#fb923c">is_platform_user</text>
<text text-anchor="start" x="254.5" y="-1289.2" font-family="Helvetica,sans-Serif" font-size="11.00" fill="#fb923c">is_restaurant_user</text>
<text text-anchor="start" x="254.5" y="-1273.2" font-family="Helvetica,sans-Serif" font-size="11.00" fill="#38bdf8">email_address</text>
<text text-anchor="start" x="254.5" y="-1257.2" font-family="Helvetica,sans-Serif" font-size="11.00" fill="#38bdf8">phone_e164</text>
<text text-anchor="start" x="254.5" y="-1241.2" font-family="Helvetica,sans-Serif" font-size="11.00" fill="#a16207">last_seen_at</text>
</g>
<!-- iam_profile&#45;&gt;incident_event -->
<g id="edge27" class="edge">
<title>iam_profile&#45;&gt;incident_event</title>
<path fill="none" stroke="#9ca3af" stroke-width="1.5" stroke-dasharray="5,2" d="M308.42,-1235.59C319.95,-971.77 400.35,0 959.5,0 959.5,0 959.5,0 2391.5,0 2503.33,0 2539.35,-51 2595,-148 2676.51,-290.06 2681.53,-815.67 2681.25,-966.37"/>
<polygon fill="#9ca3af" stroke="#9ca3af" stroke-width="1.5" points="2678.8,-966.67 2681.23,-973.68 2683.7,-966.69 2678.8,-966.67"/>
<text text-anchor="middle" x="1805.5" y="-2.8" font-family="Helvetica,sans-Serif" font-size="9.00" fill="#9ca3af">[S] optional · actor_profile_fk</text>
</g>
<!-- iam_profile&#45;&gt;incident_incident -->
<g id="edge22" class="edge">
<title>iam_profile&#45;&gt;incident_incident</title>
<path fill="none" stroke="#9ca3af" stroke-width="1.5" stroke-dasharray="5,2" d="M358.59,-1301.19C427.25,-1304.44 546.83,-1321.07 611,-1394 677.41,-1469.48 583.16,-1541.02 649,-1617 743.94,-1726.57 814.52,-1717 959.5,-1717 959.5,-1717 959.5,-1717 2024.5,-1717 2276.45,-1717 2360.93,-1321.28 2382.93,-1181.33"/>
<polygon fill="#9ca3af" stroke="#9ca3af" stroke-width="1.5" points="2385.41,-1181.36 2384.05,-1174.07 2380.56,-1180.61 2385.41,-1181.36"/>
<text text-anchor="middle" x="1508" y="-1719.8" font-family="Helvetica,sans-Serif" font-size="9.00" fill="#9ca3af">[S] optional · assigned_to_profile_fk</text>
</g>
<!-- iam_profile&#45;&gt;incident_incident -->
<g id="edge23" class="edge">
<title>iam_profile&#45;&gt;incident_incident</title>
<path fill="none" stroke="#9ca3af" stroke-width="1.5" stroke-dasharray="5,2" d="M358.6,-1247.59C462.69,-1146.89 708.03,-939 959.5,-939 959.5,-939 959.5,-939 2024.5,-939 2144.38,-939 2189.72,-936.24 2285,-1009 2311.6,-1029.31 2301.78,-1048.13 2323,-1074 2326.51,-1078.28 2330.34,-1082.52 2334.34,-1086.64"/>
<polygon fill="#9ca3af" stroke="#9ca3af" stroke-width="1.5" points="2332.8,-1088.57 2339.47,-1091.8 2336.27,-1085.11 2332.8,-1088.57"/>
<text text-anchor="middle" x="1508" y="-941.8" font-family="Helvetica,sans-Serif" font-size="9.00" fill="#9ca3af">[S] optional · reported_by_profile_fk</text>
</g>
<!-- iam_profile&#45;&gt;support_ticket -->
<g id="edge4" class="edge">
<title>iam_profile&#45;&gt;support_ticket</title>
<path fill="none" stroke="#9ca3af" stroke-width="1.5" stroke-dasharray="5,2" d="M358.53,-1301.51C426.85,-1305.15 545.74,-1322.23 611,-1394 667.76,-1456.42 583.64,-1526.64 649,-1580 702.93,-1624.03 1848.53,-1604.59 1902,-1560 1960.24,-1511.43 1999.3,-1287.64 2014.88,-1181.35"/>
<polygon fill="#9ca3af" stroke="#9ca3af" stroke-width="1.5" points="2017.34,-1181.5 2015.92,-1174.22 2012.49,-1180.79 2017.34,-1181.5"/>
<text text-anchor="middle" x="1222" y="-1606.8" font-family="Helvetica,sans-Serif" font-size="9.00" fill="#9ca3af">[S] optional · requester_profile_fk</text>
</g>
<!-- iam_profile&#45;&gt;support_ticket -->
<g id="edge11" class="edge">
<title>iam_profile&#45;&gt;support_ticket</title>
<path fill="none" stroke="#9ca3af" stroke-width="1.5" stroke-dasharray="5,2" d="M358.51,-1315.06C419.58,-1331.98 523.63,-1362.13 611,-1394 703.6,-1427.78 718.43,-1461.27 815,-1481 1291.86,-1578.44 1527.92,-1659.38 1902,-1348 1954.6,-1304.22 1987.76,-1231.33 2005.69,-1180.86"/>
<polygon fill="#9ca3af" stroke="#9ca3af" stroke-width="1.5" points="2008.02,-1181.62 2008.01,-1174.2 2003.39,-1180.01 2008.02,-1181.62"/>
<text text-anchor="middle" x="1222" y="-1568.8" font-family="Helvetica,sans-Serif" font-size="9.00" fill="#9ca3af">[S] optional · assigned_to_profile_fk</text>
</g>
<!-- iam_profile&#45;&gt;support_ticket_event -->
<g id="edge15" class="edge">
<title>iam_profile&#45;&gt;support_ticket_event</title>
<path fill="none" stroke="#9ca3af" stroke-width="1.5" stroke-dasharray="5,2" d="M352.12,-1235.83C411.07,-1156.99 521.43,-1026.58 649,-960 715.47,-925.31 740.69,-939.96 815,-930 1384.19,-853.67 1535.35,-856.07 2107,-911 2186.4,-918.63 2211.34,-903.38 2285,-934 2305.28,-942.43 2325,-955.87 2341.74,-969.41"/>
<polygon fill="#9ca3af" stroke="#9ca3af" stroke-width="1.5" points="2340.35,-971.43 2347.3,-973.99 2343.46,-967.65 2340.35,-971.43"/>
<text text-anchor="middle" x="1508" y="-878.8" font-family="Helvetica,sans-Serif" font-size="9.00" fill="#9ca3af">[S] optional · actor_profile_fk</text>
</g>
<!-- iam_profile&#45;&gt;marketing_partner_lead -->
<g id="edge1" class="edge">
<title>iam_profile&#45;&gt;marketing_partner_lead</title>
<path fill="none" stroke="#9ca3af" stroke-width="1.5" stroke-dasharray="5,2" d="M358.83,-1298.19C450.99,-1293.32 648.3,-1283.22 815,-1277 1035.57,-1268.77 1295.81,-1262.57 1425.28,-1259.72"/>
<polygon fill="#9ca3af" stroke="#9ca3af" stroke-width="1.5" points="1425.54,-1262.17 1432.49,-1259.56 1425.43,-1257.27 1425.54,-1262.17"/>
<text text-anchor="middle" x="960.5" y="-1279.8" font-family="Helvetica,sans-Serif" font-size="9.00" fill="#9ca3af">[S] optional · assigned_to_profile_fk</text>
</g>
<!-- restaurant_restaurant -->
<g id="node8" class="node">
<title>restaurant_restaurant</title>
<polygon fill="#fff7ed" stroke="transparent" points="878.5,-1416 878.5,-1434 1043.5,-1434 1043.5,-1416 878.5,-1416"/>
<polygon fill="none" stroke="#fb923c" points="878.5,-1416 878.5,-1434 1043.5,-1434 1043.5,-1416 878.5,-1416"/>
<text text-anchor="start" x="893" y="-1423.2" font-family="Helvetica,sans-Serif" font-weight="bold" font-size="11.00">restaurant_restaurant</text>
<text text-anchor="start" x="880.5" y="-1405.2" font-family="Helvetica,sans-Serif" font-size="11.00" fill="#38bdf8">restaurant_status_code</text>
<text text-anchor="start" x="880.5" y="-1389.2" font-family="Helvetica,sans-Serif" font-size="11.00" fill="#38bdf8">legal_entity_name</text>
<text text-anchor="start" x="880.5" y="-1373.2" font-family="Helvetica,sans-Serif" font-size="11.00" fill="#38bdf8">restaurant_name</text>
<text text-anchor="start" x="880.5" y="-1357.2" font-family="Helvetica,sans-Serif" font-size="11.00" fill="#38bdf8">restaurant_slug</text>
<text text-anchor="start" x="880.5" y="-1341.2" font-family="Helvetica,sans-Serif" font-size="11.00" fill="#38bdf8">primary_contact_email</text>
<text text-anchor="start" x="880.5" y="-1325.2" font-family="Helvetica,sans-Serif" font-size="11.00" fill="#38bdf8">primary_contact_phone_e164</text>
<text text-anchor="start" x="880.5" y="-1309.2" font-family="Helvetica,sans-Serif" font-size="11.00" fill="#38bdf8">pickup_instructions</text>
</g>
<!-- iam_profile&#45;&gt;restaurant_restaurant -->
<g id="edge2" class="edge">
<title>iam_profile&#45;&gt;restaurant_restaurant</title>
<path fill="none" stroke="#9ca3af" stroke-width="1.5" stroke-dasharray="5,2" d="M358.56,-1306.42C469.87,-1318.01 732.13,-1345.32 870.48,-1359.73"/>
<polygon fill="#9ca3af" stroke="#9ca3af" stroke-width="1.5" points="870.57,-1362.2 877.78,-1360.49 871.08,-1357.33 870.57,-1362.2"/>
<text text-anchor="middle" x="717" y="-1352.8" font-family="Helvetica,sans-Serif" font-size="9.00" fill="#9ca3af">[S] optional · owner_profile_fk</text>
</g>
<!-- marketing_partner_lead&#45;&gt;support_ticket -->
<g id="edge7" class="edge">
<title>marketing_partner_lead&#45;&gt;support_ticket</title>
<path fill="none" stroke="#9ca3af" stroke-width="1.5" stroke-dasharray="5,2" d="M1583.8,-1260.96C1664.97,-1261.63 1797.02,-1255.18 1902,-1214 1923.5,-1205.57 1944.59,-1192.27 1962.96,-1178.5"/>
<polygon fill="#9ca3af" stroke="#9ca3af" stroke-width="1.5" points="1964.49,-1180.42 1968.57,-1174.22 1961.52,-1176.52 1964.49,-1180.42"/>
<text text-anchor="middle" x="1805.5" y="-1257.8" font-family="Helvetica,sans-Serif" font-size="9.00" fill="#9ca3af">[S] optional · marketing_partner_lead_fk</text>
</g>
<!-- order_order -->
<g id="node7" class="node">
<title>order_order</title>
<polygon fill="#fdf4ff" stroke="transparent" points="1446,-1113 1446,-1131 1571,-1131 1571,-1113 1446,-1113"/>
<polygon fill="none" stroke="#e879f9" points="1446,-1113 1446,-1131 1571,-1131 1571,-1113 1446,-1113"/>
<text text-anchor="start" x="1472.5" y="-1120.2" font-family="Helvetica,sans-Serif" font-weight="bold" font-size="11.00">order_order</text>
<text text-anchor="start" x="1448" y="-1102.2" font-family="Helvetica,sans-Serif" font-size="11.00" fill="#38bdf8">order_status_code</text>
<text text-anchor="start" x="1448" y="-1086.2" font-family="Helvetica,sans-Serif" font-size="11.00" fill="#38bdf8">payment_status_code</text>
<text text-anchor="start" x="1448" y="-1070.2" font-family="Helvetica,sans-Serif" font-size="11.00" fill="#38bdf8">currency_code</text>
<text text-anchor="start" x="1448" y="-1054.2" font-family="Helvetica,sans-Serif" font-size="11.00" fill="#38bdf8">order_number</text>
<text text-anchor="start" x="1448" y="-1038.2" font-family="Helvetica,sans-Serif" font-size="11.00" fill="#facc15">discount_paise</text>
<text text-anchor="start" x="1448" y="-1022.2" font-family="Helvetica,sans-Serif" font-size="11.00" fill="#facc15">subtotal_paise</text>
<text text-anchor="start" x="1448" y="-1006.2" font-family="Helvetica,sans-Serif" font-size="11.00" fill="#facc15">tax_paise</text>
<text text-anchor="start" x="1448" y="-990.2" font-family="Helvetica,sans-Serif" font-size="11.00" fill="#facc15">total_paise</text>
</g>
<!-- order_order&#45;&gt;incident_incident -->
<g id="edge17" class="edge">
<title>order_order&#45;&gt;incident_incident</title>
<path fill="none" stroke="#9ca3af" stroke-width="1.5" stroke-dasharray="5,2" d="M1570.71,-1043.83C1705.22,-1015.86 2032.95,-963.63 2285,-1053 2296.52,-1057.08 2316.65,-1071.72 2336.19,-1087.37"/>
<polygon fill="#9ca3af" stroke="#9ca3af" stroke-width="1.5" points="2334.69,-1089.31 2341.67,-1091.81 2337.77,-1085.5 2334.69,-1089.31"/>
<text text-anchor="middle" x="2023.5" y="-1013.8" font-family="Helvetica,sans-Serif" font-size="9.00" fill="#9ca3af">[S] optional · order_fk</text>
</g>
<!-- order_order&#45;&gt;support_ticket -->
<g id="edge6" class="edge">
<title>order_order&#45;&gt;support_ticket</title>
<path fill="none" stroke="#9ca3af" stroke-width="1.5" stroke-dasharray="5,2" d="M1570.77,-1073.54C1610.1,-1082.88 1662.25,-1094.22 1709,-1101 1785.59,-1112.11 1873.51,-1118.28 1936.71,-1121.57"/>
<polygon fill="#9ca3af" stroke="#9ca3af" stroke-width="1.5" points="1936.79,-1124.02 1943.91,-1121.94 1937.04,-1119.13 1936.79,-1124.02"/>
<text text-anchor="middle" x="1805.5" y="-1121.8" font-family="Helvetica,sans-Serif" font-size="9.00" fill="#9ca3af">[S] optional · order_fk</text>
</g>
<!-- restaurant_restaurant&#45;&gt;incident_incident -->
<g id="edge16" class="edge">
<title>restaurant_restaurant&#45;&gt;incident_incident</title>
<path fill="none" stroke="#9ca3af" stroke-width="1.5" stroke-dasharray="5,2" d="M1043.31,-1399.87C1072.16,-1409.26 1105.11,-1418.33 1136,-1423 1211.59,-1434.43 1231.56,-1423.31 1308,-1423 1473.12,-1422.33 1516.51,-1446.39 1679.5,-1420 1782.1,-1403.39 1804.88,-1385.02 1902,-1348 2058.16,-1288.48 2236.7,-1205.89 2328.26,-1162.44"/>
<polygon fill="#9ca3af" stroke="#9ca3af" stroke-width="1.5" points="2329.43,-1164.59 2334.7,-1159.38 2327.33,-1160.17 2329.43,-1164.59"/>
<text text-anchor="middle" x="1805.5" y="-1416.8" font-family="Helvetica,sans-Serif" font-size="9.00" fill="#9ca3af">[S] optional · restaurant_fk</text>
</g>
<!-- restaurant_restaurant&#45;&gt;support_ticket -->
<g id="edge5" class="edge">
<title>restaurant_restaurant&#45;&gt;support_ticket</title>
<path fill="none" stroke="#9ca3af" stroke-width="1.5" stroke-dasharray="5,2" d="M1043.13,-1380.64C1177.56,-1397.33 1453.16,-1421.08 1679.5,-1373 1785.37,-1350.51 1816.14,-1339.91 1902,-1274 1935.77,-1248.08 1965.89,-1210.84 1987.57,-1180.07"/>
<polygon fill="#9ca3af" stroke="#9ca3af" stroke-width="1.5" points="1989.8,-1181.16 1991.79,-1174.01 1985.78,-1178.36 1989.8,-1181.16"/>
<text text-anchor="middle" x="1508" y="-1403.8" font-family="Helvetica,sans-Serif" font-size="9.00" fill="#9ca3af">[S] optional · restaurant_fk</text>
</g>
<!-- restaurant_restaurant&#45;&gt;marketing_partner_lead -->
<g id="edge28" class="edge">
<title>restaurant_restaurant&#45;&gt;marketing_partner_lead</title>
<path fill="none" stroke="#9ca3af" stroke-width="1.5" stroke-dasharray="5,2" d="M1043.17,-1352.38C1146.16,-1331.42 1322.22,-1295.6 1425.25,-1274.63"/>
<polygon fill="#9ca3af" stroke="#9ca3af" stroke-width="1.5" points="1425.87,-1277.01 1432.24,-1273.21 1424.89,-1272.21 1425.87,-1277.01"/>
<text text-anchor="middle" x="1222" y="-1335.8" font-family="Helvetica,sans-Serif" font-size="9.00" fill="#9ca3af">[S] optional · converted_restaurant_fk</text>
</g>
<!-- restaurant_restaurant&#45;&gt;order_order -->
<g id="edge3" class="edge">
<title>restaurant_restaurant&#45;&gt;order_order</title>
<path fill="none" stroke="#818cf8" stroke-width="2" d="M1043.17,-1322.44C1150.88,-1261.03 1338.5,-1154.06 1438.94,-1096.8"/>
<polygon fill="#818cf8" stroke="#818cf8" stroke-width="2" points="1440.27,-1098.87 1445.13,-1093.27 1437.84,-1094.61 1440.27,-1098.87"/>
<text text-anchor="middle" x="1222" y="-1270.8" font-family="Helvetica,sans-Serif" font-size="9.00" fill="#818cf8">[R] has · restaurant_fk</text>
</g>
<!-- master_incident_severity -->
<g id="node9" class="node">
<title>master_incident_severity</title>
<polygon fill="#f3f4f6" stroke="transparent" points="1428,-387 1428,-405 1589,-405 1589,-387 1428,-387"/>
<polygon fill="none" stroke="#9ca3af" points="1428,-387 1428,-405 1589,-405 1589,-387 1428,-387"/>
<text text-anchor="start" x="1431" y="-394.2" font-family="Helvetica,sans-Serif" font-weight="bold" font-size="11.00">master_incident_severity</text>
<text text-anchor="start" x="1430" y="-376.2" font-family="Helvetica,sans-Serif" font-size="11.00" fill="#38bdf8">severity_code</text>
<text text-anchor="start" x="1430" y="-360.2" font-family="Helvetica,sans-Serif" font-size="11.00" fill="#38bdf8">severity_name</text>
<text text-anchor="start" x="1430" y="-344.2" font-family="Helvetica,sans-Serif" font-size="11.00" fill="#38bdf8">description</text>
<text text-anchor="start" x="1430" y="-328.2" font-family="Helvetica,sans-Serif" font-size="11.00" fill="#4ade80">sort_order</text>
</g>
<!-- master_incident_severity&#45;&gt;incident_incident -->
<g id="edge21" class="edge">
<title>master_incident_severity&#45;&gt;incident_incident</title>
<path fill="none" stroke="#818cf8" stroke-width="2" d="M1588.87,-373.87C1621.44,-381.92 1656.72,-396.53 1679.5,-423 1726.38,-477.48 1662.63,-527.09 1709,-582 1797.26,-686.5 2200.67,-691.3 2285,-799 2361.07,-896.15 2264.8,-965.2 2323,-1074 2325.25,-1078.21 2327.93,-1082.26 2330.89,-1086.13"/>
<polygon fill="#818cf8" stroke="#818cf8" stroke-width="2" points="2329.1,-1087.81 2335.43,-1091.67 2332.89,-1084.7 2329.1,-1087.81"/>
<text text-anchor="middle" x="2023.5" y="-716.8" font-family="Helvetica,sans-Serif" font-size="9.00" fill="#818cf8">[R] has · master_incident_severity_fk</text>
</g>
<!-- master_incident_status -->
<g id="node10" class="node">
<title>master_incident_status</title>
<polygon fill="#f3f4f6" stroke="transparent" points="1434,-135 1434,-153 1583,-153 1583,-135 1434,-135"/>
<polygon fill="none" stroke="#9ca3af" points="1434,-135 1434,-153 1583,-153 1583,-135 1434,-135"/>
<text text-anchor="start" x="1437" y="-142.2" font-family="Helvetica,sans-Serif" font-weight="bold" font-size="11.00">master_incident_status</text>
<text text-anchor="start" x="1436" y="-124.2" font-family="Helvetica,sans-Serif" font-size="11.00" fill="#38bdf8">status_code</text>
<text text-anchor="start" x="1436" y="-108.2" font-family="Helvetica,sans-Serif" font-size="11.00" fill="#38bdf8">status_name</text>
<text text-anchor="start" x="1436" y="-92.2" font-family="Helvetica,sans-Serif" font-size="11.00" fill="#fb923c">is_terminal</text>
<text text-anchor="start" x="1436" y="-76.2" font-family="Helvetica,sans-Serif" font-size="11.00" fill="#38bdf8">description</text>
<text text-anchor="start" x="1436" y="-60.2" font-family="Helvetica,sans-Serif" font-size="11.00" fill="#4ade80">sort_order</text>
</g>
<!-- master_incident_status&#45;&gt;incident_event -->
<g id="edge25" class="edge">
<title>master_incident_status&#45;&gt;incident_event</title>
<path fill="none" stroke="#9ca3af" stroke-width="1.5" stroke-dasharray="5,2" d="M1582.71,-85.79C1778.99,-42.16 2318.22,45.1 2595,-234 2647.07,-286.51 2673,-815.13 2679.4,-966.62"/>
<polygon fill="#9ca3af" stroke="#9ca3af" stroke-width="1.5" points="2676.96,-967.08 2679.7,-973.97 2681.86,-966.87 2676.96,-967.08"/>
<text text-anchor="middle" x="2215" y="-69.8" font-family="Helvetica,sans-Serif" font-size="9.00" fill="#9ca3af">[S] optional · from_status_fk</text>
</g>
<!-- master_incident_status&#45;&gt;incident_event -->
<g id="edge26" class="edge">
<title>master_incident_status&#45;&gt;incident_event</title>
<path fill="none" stroke="#9ca3af" stroke-width="1.5" stroke-dasharray="5,2" d="M1582.77,-117.78C1731.54,-148.85 2071.52,-236.95 2285,-426 2472.79,-592.3 2614.25,-865.97 2662.77,-967.49"/>
<polygon fill="#9ca3af" stroke="#9ca3af" stroke-width="1.5" points="2660.61,-968.66 2665.83,-973.93 2665.03,-966.55 2660.61,-968.66"/>
<text text-anchor="middle" x="2215" y="-428.8" font-family="Helvetica,sans-Serif" font-size="9.00" fill="#9ca3af">[S] optional · to_status_fk</text>
</g>
<!-- master_incident_status&#45;&gt;incident_incident -->
<g id="edge20" class="edge">
<title>master_incident_status&#45;&gt;incident_incident</title>
<path fill="none" stroke="#818cf8" stroke-width="2" d="M1582.65,-116.81C1616.61,-126.34 1654.76,-142.78 1679.5,-171 1715.42,-211.98 1670.53,-251.41 1709,-290 1837.76,-419.17 1962.83,-278.29 2107,-390 2237.8,-491.35 2235.74,-559.03 2285,-717 2332.5,-869.33 2249.95,-932.14 2323,-1074 2325.18,-1078.24 2327.81,-1082.32 2330.74,-1086.21"/>
<polygon fill="#818cf8" stroke="#818cf8" stroke-width="2" points="2328.93,-1087.87 2335.23,-1091.77 2332.74,-1084.79 2328.93,-1087.87"/>
<text text-anchor="middle" x="2023.5" y="-392.8" font-family="Helvetica,sans-Serif" font-size="9.00" fill="#818cf8">[R] has · master_incident_status_fk</text>
</g>
<!-- master_incident_type -->
<g id="node11" class="node">
<title>master_incident_type</title>
<polygon fill="#f3f4f6" stroke="transparent" points="1439,-505 1439,-523 1577,-523 1577,-505 1439,-505"/>
<polygon fill="none" stroke="#9ca3af" points="1439,-505 1439,-523 1577,-523 1577,-505 1439,-505"/>
<text text-anchor="start" x="1442" y="-512.2" font-family="Helvetica,sans-Serif" font-weight="bold" font-size="11.00">master_incident_type</text>
<text text-anchor="start" x="1441" y="-494.2" font-family="Helvetica,sans-Serif" font-size="11.00" fill="#38bdf8">type_code</text>
<text text-anchor="start" x="1441" y="-478.2" font-family="Helvetica,sans-Serif" font-size="11.00" fill="#38bdf8">type_name</text>
<text text-anchor="start" x="1441" y="-462.2" font-family="Helvetica,sans-Serif" font-size="11.00" fill="#fb923c">is_active</text>
<text text-anchor="start" x="1441" y="-446.2" font-family="Helvetica,sans-Serif" font-size="11.00" fill="#38bdf8">description</text>
</g>
<!-- master_incident_type&#45;&gt;incident_incident -->
<g id="edge19" class="edge">
<title>master_incident_type&#45;&gt;incident_incident</title>
<path fill="none" stroke="#818cf8" stroke-width="2" d="M1577.28,-489.6C1612.61,-497.05 1653.64,-511.81 1679.5,-541 1720.8,-587.63 1666.64,-632.34 1709,-678 1769.83,-743.57 1818.53,-702.86 1902,-735 2078.24,-802.85 2166.01,-772.36 2285,-919 2329.69,-974.08 2286.37,-1013.26 2323,-1074 2325.58,-1078.27 2328.56,-1082.4 2331.81,-1086.36"/>
<polygon fill="#818cf8" stroke="#818cf8" stroke-width="2" points="2329.96,-1087.97 2336.39,-1091.66 2333.66,-1084.76 2329.96,-1087.97"/>
<text text-anchor="middle" x="2023.5" y="-795.8" font-family="Helvetica,sans-Serif" font-size="9.00" fill="#818cf8">[R] has · master_incident_type_fk</text>
</g>
<!-- master_support_ticket_priority -->
<g id="node12" class="node">
<title>master_support_ticket_priority</title>
<polygon fill="#f3f4f6" stroke="transparent" points="1411,-757 1411,-775 1605,-775 1605,-757 1411,-757"/>
<polygon fill="none" stroke="#9ca3af" points="1411,-757 1411,-775 1605,-775 1605,-757 1411,-757"/>
<text text-anchor="start" x="1414" y="-764.2" font-family="Helvetica,sans-Serif" font-weight="bold" font-size="11.00">master_support_ticket_priority</text>
<text text-anchor="start" x="1413" y="-746.2" font-family="Helvetica,sans-Serif" font-size="11.00" fill="#38bdf8">priority_code</text>
<text text-anchor="start" x="1413" y="-730.2" font-family="Helvetica,sans-Serif" font-size="11.00" fill="#38bdf8">priority_name</text>
<text text-anchor="start" x="1413" y="-714.2" font-family="Helvetica,sans-Serif" font-size="11.00" fill="#38bdf8">description</text>
<text text-anchor="start" x="1413" y="-698.2" font-family="Helvetica,sans-Serif" font-size="11.00" fill="#4ade80">sla_first_response_minutes</text>
<text text-anchor="start" x="1413" y="-682.2" font-family="Helvetica,sans-Serif" font-size="11.00" fill="#4ade80">sort_order</text>
</g>
<!-- master_support_ticket_priority&#45;&gt;support_ticket -->
<g id="edge10" class="edge">
<title>master_support_ticket_priority&#45;&gt;support_ticket</title>
<path fill="none" stroke="#818cf8" stroke-width="2" d="M1605.12,-767.62C1630.29,-780.32 1656.74,-795.39 1679.5,-812 1694.6,-823.02 1695.53,-829.03 1709,-842 1807.35,-936.71 1834.27,-957.94 1936,-1049 1943.87,-1056.04 1952.17,-1063.41 1960.39,-1070.68"/>
<polygon fill="#818cf8" stroke="#818cf8" stroke-width="2" points="1959.2,-1072.89 1966.07,-1075.68 1962.44,-1069.21 1959.2,-1072.89"/>
<text text-anchor="middle" x="1805.5" y="-1016.8" font-family="Helvetica,sans-Serif" font-size="9.00" fill="#818cf8">[R] has · master_support_ticket_priority_fk</text>
</g>
<!-- master_support_ticket_status -->
<g id="node13" class="node">
<title>master_support_ticket_status</title>
<polygon fill="#f3f4f6" stroke="transparent" points="1415,-269 1415,-287 1602,-287 1602,-269 1415,-269"/>
<polygon fill="none" stroke="#9ca3af" points="1415,-269 1415,-287 1602,-287 1602,-269 1415,-269"/>
<text text-anchor="start" x="1418" y="-276.2" font-family="Helvetica,sans-Serif" font-weight="bold" font-size="11.00">master_support_ticket_status</text>
<text text-anchor="start" x="1417" y="-258.2" font-family="Helvetica,sans-Serif" font-size="11.00" fill="#38bdf8">status_code</text>
<text text-anchor="start" x="1417" y="-242.2" font-family="Helvetica,sans-Serif" font-size="11.00" fill="#38bdf8">status_name</text>
<text text-anchor="start" x="1417" y="-226.2" font-family="Helvetica,sans-Serif" font-size="11.00" fill="#fb923c">is_terminal</text>
<text text-anchor="start" x="1417" y="-210.2" font-family="Helvetica,sans-Serif" font-size="11.00" fill="#38bdf8">description</text>
<text text-anchor="start" x="1417" y="-194.2" font-family="Helvetica,sans-Serif" font-size="11.00" fill="#4ade80">sort_order</text>
</g>
<!-- master_support_ticket_status&#45;&gt;support_ticket -->
<g id="edge9" class="edge">
<title>master_support_ticket_status&#45;&gt;support_ticket</title>
<path fill="none" stroke="#818cf8" stroke-width="2" d="M1601.64,-254.58C1630.89,-264.42 1660.51,-280.08 1679.5,-305 1754.55,-403.47 1655.19,-470.5 1709,-582 1761.32,-690.4 1848.81,-664.02 1902,-772 1956.81,-883.27 1878.06,-939.33 1936,-1049 1940.01,-1056.59 1945.11,-1063.78 1950.83,-1070.48"/>
<polygon fill="#818cf8" stroke="#818cf8" stroke-width="2" points="1949.27,-1072.41 1955.76,-1076 1952.92,-1069.15 1949.27,-1072.41"/>
<text text-anchor="middle" x="1805.5" y="-774.8" font-family="Helvetica,sans-Serif" font-size="9.00" fill="#818cf8">[R] has · master_support_ticket_status_fk</text>
</g>
<!-- master_support_ticket_status&#45;&gt;support_ticket_event -->
<g id="edge13" class="edge">
<title>master_support_ticket_status&#45;&gt;support_ticket_event</title>
<path fill="none" stroke="#9ca3af" stroke-width="1.5" stroke-dasharray="5,2" d="M1601.54,-274.16C1626.84,-284.1 1654.25,-294.92 1679.5,-305 1793.75,-350.61 1820.63,-366.32 1936,-409 2089.43,-465.76 2176.03,-403.98 2285,-526 2343.28,-591.26 2374.57,-856.93 2385.24,-966.94"/>
<polygon fill="#9ca3af" stroke="#9ca3af" stroke-width="1.5" points="2382.81,-967.22 2385.91,-973.96 2387.68,-966.76 2382.81,-967.22"/>
<text text-anchor="middle" x="2023.5" y="-442.8" font-family="Helvetica,sans-Serif" font-size="9.00" fill="#9ca3af">[S] optional · from_status_fk</text>
</g>
<!-- master_support_ticket_status&#45;&gt;support_ticket_event -->
<g id="edge14" class="edge">
<title>master_support_ticket_status&#45;&gt;support_ticket_event</title>
<path fill="none" stroke="#9ca3af" stroke-width="1.5" stroke-dasharray="5,2" d="M1601.8,-258.76C1629.68,-268.83 1658.43,-283.57 1679.5,-305 1705.78,-331.73 1684.8,-355.38 1709,-384 1899.95,-609.78 2096.33,-489.31 2285,-717 2346.3,-790.98 2372.64,-903.32 2383.16,-966.83"/>
<polygon fill="#9ca3af" stroke="#9ca3af" stroke-width="1.5" points="2380.78,-967.43 2384.31,-973.95 2385.62,-966.65 2380.78,-967.43"/>
<text text-anchor="middle" x="2023.5" y="-584.8" font-family="Helvetica,sans-Serif" font-size="9.00" fill="#9ca3af">[S] optional · to_status_fk</text>
</g>
<!-- master_support_ticket_type -->
<g id="node14" class="node">
<title>master_support_ticket_type</title>
<polygon fill="#f3f4f6" stroke="transparent" points="1420,-623 1420,-641 1596,-641 1596,-623 1420,-623"/>
<polygon fill="none" stroke="#9ca3af" points="1420,-623 1420,-641 1596,-641 1596,-623 1420,-623"/>
<text text-anchor="start" x="1423" y="-630.2" font-family="Helvetica,sans-Serif" font-weight="bold" font-size="11.00">master_support_ticket_type</text>
<text text-anchor="start" x="1422" y="-612.2" font-family="Helvetica,sans-Serif" font-size="11.00" fill="#38bdf8">type_code</text>
<text text-anchor="start" x="1422" y="-596.2" font-family="Helvetica,sans-Serif" font-size="11.00" fill="#38bdf8">type_name</text>
<text text-anchor="start" x="1422" y="-580.2" font-family="Helvetica,sans-Serif" font-size="11.00" fill="#fb923c">is_active</text>
<text text-anchor="start" x="1422" y="-564.2" font-family="Helvetica,sans-Serif" font-size="11.00" fill="#38bdf8">description</text>
</g>
<!-- master_support_ticket_type&#45;&gt;support_ticket -->
<g id="edge8" class="edge">
<title>master_support_ticket_type&#45;&gt;support_ticket</title>
<path fill="none" stroke="#818cf8" stroke-width="2" d="M1596.15,-612.52C1626.33,-621 1657.96,-635.2 1679.5,-659 1717.51,-701 1668.36,-743.53 1709,-783 1771.84,-844.03 1841.78,-759.38 1902,-823 1971.82,-896.77 1887.34,-959.84 1936,-1049 1940.12,-1056.54 1945.29,-1063.69 1951.04,-1070.37"/>
<polygon fill="#818cf8" stroke="#818cf8" stroke-width="2" points="1949.49,-1072.31 1956,-1075.86 1953.13,-1069.03 1949.49,-1072.31"/>
<text text-anchor="middle" x="1805.5" y="-825.8" font-family="Helvetica,sans-Serif" font-size="9.00" fill="#818cf8">[R] has · master_support_ticket_type_fk</text>
</g>
<!-- legend_support_incident_context -->
<g id="node15" class="node">
<title>legend_support_incident_context</title>
<text text-anchor="start" x="283.5" y="-1501.2" font-family="Helvetica,sans-Serif" font-weight="bold" font-size="11.00">Legend</text>
<text text-anchor="start" x="5.5" y="-1480.2" font-family="Helvetica,sans-Serif" font-size="11.00">[C] Cascade — red solid 3pt</text>
<text text-anchor="start" x="5.5" y="-1460.2" font-family="Helvetica,sans-Serif" font-size="11.00">[R] Restrict — indigo solid 2pt</text>
<text text-anchor="start" x="5.5" y="-1440.2" font-family="Helvetica,sans-Serif" font-size="11.00">[S] Set Null — gray dashed 1.5pt</text>
<text text-anchor="start" x="5.5" y="-1420.2" font-family="Helvetica,sans-Serif" font-size="11.00">Text colors → violet uuid, blue string, green integer, orange boolean, brown datetime, gold money, cyan json</text>
<polygon fill="none" stroke="black" points="0,-1412 0,-1514 611,-1514 611,-1412 0,-1412"/>
</g>
</g>
</svg>
