<svg xmlns="http://www.w3.org/2000/svg" width="1200" height="900" viewBox="0 0 1200 900">
  <rect width="1200" height="900" fill="#FFF8F0"/>
  <circle cx="600" cy="1020" r="828" fill="#FF6B35" opacity="0.10"/>
  <rect x="0" y="750" width="1200" height="150" fill="#D4A017" opacity="0.16"/>
  <circle cx="198.0" cy="150.0" r="9" fill="#D4A017" opacity="0.25"/><circle cx="115.3" cy="252.3" r="9" fill="#D4A017" opacity="0.25"/><circle cx="84.7" cy="100.0" r="9" fill="#D4A017" opacity="0.25"/><circle cx="197.0" cy="118.5" r="9" fill="#D4A017" opacity="0.25"/><circle cx="180.4" cy="262.5" r="9" fill="#D4A017" opacity="0.25"/><circle cx="59.3" cy="144.3" r="9" fill="#D4A017" opacity="0.25"/><circle cx="174.8" cy="89.7" r="9" fill="#D4A017" opacity="0.25"/>
  <circle cx="1094.0" cy="200.0" r="9" fill="#FF6B35" opacity="0.22"/><circle cx="1004.6" cy="288.0" r="9" fill="#FF6B35" opacity="0.22"/><circle cx="1006.3" cy="138.5" r="9" fill="#FF6B35" opacity="0.22"/><circle cx="1101.3" cy="192.7" r="9" fill="#FF6B35" opacity="0.22"/><circle cx="1014.9" cy="300.9" r="9" fill="#FF6B35" opacity="0.22"/><circle cx="992.6" cy="139.6" r="9" fill="#FF6B35" opacity="0.22"/>
  
      <g opacity="0.5" fill="none" stroke="#D4A017" stroke-width="10" stroke-linecap="round">
    <path d="M540,250 c-18,-30 18,-50 0,-90 c-14,-26 14,-44 0,-78"/>
    <path d="M600,250 c-18,-34 18,-54 0,-100 c-14,-28 14,-48 0,-86"/>
    <path d="M660,250 c-18,-30 18,-50 0,-90 c-14,-26 14,-44 0,-78"/>
  </g>
      <ellipse cx="600" cy="680" rx="300" ry="46" fill="#2D2D2D" opacity="0.12"/>
      <path d="M350,470 a250,250 0 0 0 500,0 Z" fill="#2D2D2D"/>
      <ellipse cx="600" cy="470" rx="250" ry="70" fill="#2D2D2D"/>
      <ellipse cx="600" cy="470" rx="250" ry="70" fill="none" stroke="#D4A017" stroke-width="10"/>
      <ellipse cx="600" cy="466" rx="220" ry="56" fill="#FFF8F0"/>
      <ellipse cx="600" cy="460" rx="220" ry="56" fill="#FBE9C8"/>
      <circle cx="680.0" cy="458.0" r="7" fill="#FF6B35" opacity="0.85"/><circle cx="658.2" cy="628.3" r="7" fill="#FF6B35" opacity="0.85"/><circle cx="491.5" cy="541.9" r="7" fill="#FF6B35" opacity="0.85"/><circle cx="521.3" cy="406.1" r="7" fill="#FF6B35" opacity="0.85"/><circle cx="648.9" cy="270.0" r="7" fill="#FF6B35" opacity="0.85"/><circle cx="751.0" cy="446.7" r="7" fill="#FF6B35" opacity="0.85"/><circle cx="642.7" cy="557.8" r="7" fill="#FF6B35" opacity="0.85"/><circle cx="445.0" cy="597.6" r="7" fill="#FF6B35" opacity="0.85"/><circle cx="455.3" cy="377.3" r="7" fill="#FF6B35" opacity="0.85"/><circle cx="621.9" cy="337.1" r="7" fill="#FF6B35" opacity="0.85"/><circle cx="679.1" cy="446.1" r="7" fill="#FF6B35" opacity="0.85"/><circle cx="682.9" cy="617.8" r="7" fill="#FF6B35" opacity="0.85"/><circle cx="505.2" cy="557.1" r="7" fill="#FF6B35" opacity="0.85"/><circle cx="514.4" cy="418.4" r="7" fill="#FF6B35" opacity="0.85"/><circle cx="620.3" cy="264.8" r="7" fill="#FF6B35" opacity="0.85"/><circle cx="747.6" cy="424.3" r="7" fill="#FF6B35" opacity="0.85"/><circle cx="657.1" cy="550.3" r="7" fill="#FF6B35" opacity="0.85"/><circle cx="467.6" cy="619.1" r="7" fill="#FF6B35" opacity="0.85"/><circle cx="444.8" cy="399.8" r="7" fill="#FF6B35" opacity="0.85"/><circle cx="603.6" cy="335.2" r="7" fill="#FF6B35" opacity="0.85"/><circle cx="676.4" cy="434.4" r="7" fill="#FF6B35" opacity="0.85"/><circle cx="705.9" cy="603.6" r="7" fill="#FF6B35" opacity="0.85"/><circle cx="521.1" cy="570.2" r="7" fill="#FF6B35" opacity="0.85"/><circle cx="509.5" cy="431.6" r="7" fill="#FF6B35" opacity="0.85"/><circle cx="591.2" cy="263.9" r="7" fill="#FF6B35" opacity="0.85"/><circle cx="740.9" cy="402.6" r="7" fill="#FF6B35" opacity="0.85"/>
      <circle cx="668.0" cy="458.0" r="5" fill="#E2531F" opacity="0.8"/><circle cx="618.6" cy="609.9" r="5" fill="#E2531F" opacity="0.8"/><circle cx="486.9" cy="486.2" r="5" fill="#E2531F" opacity="0.8"/><circle cx="571.3" cy="383.2" r="5" fill="#E2531F" opacity="0.8"/><circle cx="745.9" cy="380.6" r="5" fill="#E2531F" opacity="0.8"/><circle cx="673.7" cy="563.5" r="5" fill="#E2531F" opacity="0.8"/><circle cx="531.4" cy="519.7" r="5" fill="#E2531F" opacity="0.8"/><circle cx="466.3" cy="341.5" r="5" fill="#E2531F" opacity="0.8"/><circle cx="678.9" cy="341.3" r="5" fill="#E2531F" opacity="0.8"/><circle cx="693.0" cy="505.6" r="5" fill="#E2531F" opacity="0.8"/><circle cx="576.6" cy="521.9" r="5" fill="#E2531F" opacity="0.8"/><circle cx="451.0" cy="423.3" r="5" fill="#E2531F" opacity="0.8"/><circle cx="612.4" cy="342.1" r="5" fill="#E2531F" opacity="0.8"/><circle cx="680.1" cy="456.8" r="5" fill="#E2531F" opacity="0.8"/>
      <g transform="translate(720,430)" fill="#2D2D2D" opacity="0.8">
        <circle r="20" fill="none" stroke="#2D2D2D" stroke-width="6"/>
        <circle cx="6.4" cy="0.0" r="9" fill="#2D2D2D" opacity="0.9"/><circle cx="-3.1" cy="14.1" r="9" fill="#2D2D2D" opacity="0.9"/><circle cx="-10.0" cy="-4.6" r="9" fill="#2D2D2D" opacity="0.9"/><circle cx="4.5" cy="-6.0" r="9" fill="#2D2D2D" opacity="0.9"/><circle cx="10.2" cy="11.8" r="9" fill="#2D2D2D" opacity="0.9"/><circle cx="-10.6" cy="5.8" r="9" fill="#2D2D2D" opacity="0.9"/><circle cx="-2.4" cy="-8.3" r="9" fill="#2D2D2D" opacity="0.9"/><circle cx="16.6" cy="-1.1" r="9" fill="#2D2D2D" opacity="0.9"/>
      </g>
  <g transform="translate(1080,780) scale(0.9)" opacity="0.9">
    <path d="M0,-46 C26,-20 30,8 12,30 C30,18 32,-6 18,-30 C40,-2 36,40 0,52 C-36,40 -40,-2 -18,-30 C-32,-6 -30,18 -12,30 C-30,8 -26,-20 0,-46 Z" fill="#FF6B35"/>
  </g>
</svg>