<svg xmlns="http://www.w3.org/2000/svg" width="1200" height="900" viewBox="0 0 1200 900">
  <rect width="1200" height="900" fill="#FFF8F0"/>
  <circle cx="600" cy="1020" r="828" fill="#1A5C38" opacity="0.10"/>
  <rect x="0" y="750" width="1200" height="150" fill="#3F8F5B" opacity="0.16"/>
  <circle cx="198.0" cy="150.0" r="9" fill="#3F8F5B" opacity="0.25"/><circle cx="115.3" cy="252.3" r="9" fill="#3F8F5B" opacity="0.25"/><circle cx="84.7" cy="100.0" r="9" fill="#3F8F5B" opacity="0.25"/><circle cx="197.0" cy="118.5" r="9" fill="#3F8F5B" opacity="0.25"/><circle cx="180.4" cy="262.5" r="9" fill="#3F8F5B" opacity="0.25"/><circle cx="59.3" cy="144.3" r="9" fill="#3F8F5B" opacity="0.25"/><circle cx="174.8" cy="89.7" r="9" fill="#3F8F5B" opacity="0.25"/>
  <circle cx="1094.0" cy="200.0" r="9" fill="#1A5C38" opacity="0.22"/><circle cx="1004.6" cy="288.0" r="9" fill="#1A5C38" opacity="0.22"/><circle cx="1006.3" cy="138.5" r="9" fill="#1A5C38" opacity="0.22"/><circle cx="1101.3" cy="192.7" r="9" fill="#1A5C38" opacity="0.22"/><circle cx="1014.9" cy="300.9" r="9" fill="#1A5C38" opacity="0.22"/><circle cx="992.6" cy="139.6" r="9" fill="#1A5C38" opacity="0.22"/>
  
      <ellipse cx="600" cy="550" rx="330" ry="120" fill="#2D2D2D" opacity="0.10"/>
      <ellipse cx="600" cy="470" rx="330" ry="250" fill="#EDEFF2"/>
      <ellipse cx="600" cy="470" rx="330" ry="250" fill="none" stroke="#CED3D9" stroke-width="10"/>
      <ellipse cx="600" cy="470" rx="120" ry="92" fill="#FBE9C8"/>
      <circle cx="632.0" cy="470.0" r="6" fill="#FF6B35" opacity="0.7"/><circle cx="603.4" cy="541.9" r="6" fill="#FF6B35" opacity="0.7"/><circle cx="545.4" cy="475.2" r="6" fill="#FF6B35" opacity="0.7"/><circle cx="594.7" cy="432.7" r="6" fill="#FF6B35" opacity="0.7"/><circle cx="676.3" cy="455.4" r="6" fill="#FF6B35" opacity="0.7"/><circle cx="614.2" cy="528.9" r="6" fill="#FF6B35" opacity="0.7"/><circle cx="558.3" cy="482.1" r="6" fill="#FF6B35" opacity="0.7"/><circle cx="572.9" cy="391.1" r="6" fill="#FF6B35" opacity="0.7"/><circle cx="661.6" cy="445.6" r="6" fill="#FF6B35" opacity="0.7"/><circle cx="620.3" cy="514.8" r="6" fill="#FF6B35" opacity="0.7"/><circle cx="571.5" cy="484.5" r="6" fill="#FF6B35" opacity="0.7"/><circle cx="564.3" cy="407.5" r="6" fill="#FF6B35" opacity="0.7"/>
      <ellipse cx="600" cy="320" rx="62" ry="48" fill="#E7E9EC"/>
        <ellipse cx="600" cy="316" rx="50" ry="38" fill="#FF6B35" opacity="0.92"/><ellipse cx="781" cy="424" rx="62" ry="48" fill="#E7E9EC"/>
        <ellipse cx="781" cy="420" rx="50" ry="38" fill="#D4A017" opacity="0.92"/><ellipse cx="712" cy="591" rx="62" ry="48" fill="#E7E9EC"/>
        <ellipse cx="712" cy="587" rx="50" ry="38" fill="#1A5C38" opacity="0.92"/><ellipse cx="488" cy="591" rx="62" ry="48" fill="#E7E9EC"/>
        <ellipse cx="488" cy="587" rx="50" ry="38" fill="#C0392B" opacity="0.92"/><ellipse cx="419" cy="424" rx="62" ry="48" fill="#E7E9EC"/>
        <ellipse cx="419" cy="420" rx="50" ry="38" fill="#E2531F" opacity="0.92"/>
      <g transform="translate(350,270) rotate(-20)">
        <path d="M0,0 C40,-50 110,-50 150,0 C110,50 40,50 0,0 Z" fill="#3F8F5B"/>
        <path d="M10,0 L140,0" stroke="#1A5C38" stroke-width="5"/>
      </g>
  <g transform="translate(1080,780) scale(0.9)" opacity="0.9">
    <path d="M0,-46 C26,-20 30,8 12,30 C30,18 32,-6 18,-30 C40,-2 36,40 0,52 C-36,40 -40,-2 -18,-30 C-32,-6 -30,18 -12,30 C-30,8 -26,-20 0,-46 Z" fill="#1A5C38"/>
  </g>
</svg>